<svg xmlns="http://www.w3.org/2000/svg" width="396.866943359375" height="399.0166320800781" viewBox="-142.5850830078125 -102.16182708740234 396.866943359375 399.0166320800781"><title>Neo4j Graph Visualization</title><desc>Created using Neo4j (http://www.neo4j.com/)</desc><g class="layer relationships"><g class="relationship" transform="translate(14.497018597704832 211.5221978941631) rotate(289.0280219760658)"><path class="outline" fill="#A5ABB6" stroke="none" d="M 25 0.5 L 27.693004252736515 0.5 L 27.693004252736515 -0.5 L 25 -0.5 Z M 85.09925425273651 0.5 L 87.79225850547303 0.5 L 87.79225850547303 3.5 L 94.79225850547303 0 L 87.79225850547303 -3.5 L 87.79225850547303 -0.5 L 85.09925425273651 -0.5 Z"/><text text-anchor="middle" pointer-events="none" font-size="8px" fill="#000000" x="56.396129252736515" y="3" font-family="sans-serif">TRAVELS_F…</text></g><g class="relationship" transform="translate(104.57351940376807 207.65199125908316) rotate(244.9924875386463)"><path class="outline" fill="#A5ABB6" stroke="none" d="M 25 0.5 L 25.1423787715704 0.5 L 25.1423787715704 -0.5 L 25 -0.5 Z M 88.5486287715704 0.5 L 88.6910075431408 0.5 L 88.6910075431408 3.5 L 95.6910075431408 0 L 88.6910075431408 -3.5 L 88.6910075431408 -0.5 L 88.5486287715704 -0.5 Z"/><text text-anchor="middle" pointer-events="none" font-size="8px" fill="#000000" x="56.8455037715704" y="3" transform="rotate(180 56.8455037715704 0)" font-family="sans-serif">TRAVELS_FR…</text></g><g class="relationship" transform="translate(35.14357299552156 267.85480899110155) rotate(276.1957158447133)"><path class="outline" fill="#A5ABB6" stroke="none" d="M 25 0.5 L 47.584702560781324 0.5 L 47.584702560781324 -0.5 L 25 -0.5 Z M 115.99095256078132 0.5 L 138.57565512156265 0.5 L 138.57565512156265 3.5 L 145.57565512156265 0 L 138.57565512156265 -3.5 L 138.57565512156265 -0.5 L 115.99095256078132 -0.5 Z"/><text text-anchor="middle" pointer-events="none" font-size="8px" fill="#000000" x="81.78782756078132" y="3" font-family="sans-serif">TRAVELS_FROM</text></g><g class="relationship" transform="translate(156.89543729463077 241.20870871246308) rotate(234.13260772529503)"><path class="outline" fill="#A5ABB6" stroke="none" d="M 25 0.5 L 50.48641053727495 0.5 L 50.48641053727495 -0.5 L 25 -0.5 Z M 118.89266053727495 0.5 L 144.3790710745499 0.5 L 144.3790710745499 3.5 L 151.3790710745499 0 L 144.3790710745499 -3.5 L 144.3790710745499 -0.5 L 118.89266053727495 -0.5 Z"/><text text-anchor="middle" pointer-events="none" font-size="8px" fill="#000000" x="84.68953553727495" y="3" transform="rotate(180 84.68953553727495 0)" font-family="sans-serif">TRAVELS_FROM</text></g><g class="relationship" transform="translate(95.13181030479308 266.9024262724562) rotate(256.14870613646286)"><path class="outline" fill="#A5ABB6" stroke="none" d="M 25 0.5 L 49.13558798251562 0.5 L 49.13558798251562 -0.5 L 25 -0.5 Z M 117.54183798251562 0.5 L 141.67742596503123 0.5 L 141.67742596503123 3.5 L 148.67742596503123 0 L 141.67742596503123 -3.5 L 141.67742596503123 -0.5 L 117.54183798251562 -0.5 Z"/><text text-anchor="middle" pointer-events="none" font-size="8px" fill="#000000" x="83.33871298251562" y="3" transform="rotate(180 83.33871298251562 0)" font-family="sans-serif">TRAVELS_FROM</text></g><g class="relationship" transform="translate(198.65045420446233 198.1358338690079) rotate(214.53688854169002)"><path class="outline" fill="#A5ABB6" stroke="none" d="M 25 0.5 L 50.36698177820804 0.5 L 50.36698177820804 -0.5 L 25 -0.5 Z M 118.77323177820804 0.5 L 144.1402135564161 0.5 L 144.1402135564161 3.5 L 151.1402135564161 0 L 144.1402135564161 -3.5 L 144.1402135564161 -0.5 L 118.77323177820804 -0.5 Z"/><text text-anchor="middle" pointer-events="none" font-size="8px" fill="#000000" x="84.57010677820804" y="3" transform="rotate(180 84.57010677820804 0)" font-family="sans-serif">TRAVELS_FROM</text></g><g class="relationship" transform="translate(163.96381177032552 146.49260288901084) rotate(203.59119935190597)"><path class="outline" fill="#A5ABB6" stroke="none" d="M 25 0.5 L 25.03691245082586 0.5 L 25.03691245082586 -0.5 L 25 -0.5 Z M 88.44316245082587 0.5 L 88.48007490165172 0.5 L 88.48007490165172 3.5 L 95.48007490165172 0 L 88.48007490165172 -3.5 L 88.48007490165172 -0.5 L 88.44316245082587 -0.5 Z"/><text text-anchor="middle" pointer-events="none" font-size="8px" fill="#000000" x="56.74003745082586" y="3" transform="rotate(180 56.74003745082586 0)" font-family="sans-serif">TRAVELS_FR…</text></g><g class="relationship" transform="translate(225.28186293547154 143.7218739507524) rotate(194.82296960190683)"><path class="outline" fill="#A5ABB6" stroke="none" d="M 25 0.5 L 51.11718923237942 0.5 L 51.11718923237942 -0.5 L 25 -0.5 Z M 119.52343923237942 0.5 L 145.64062846475883 0.5 L 145.64062846475883 3.5 L 152.64062846475883 0 L 145.64062846475883 -3.5 L 145.64062846475883 -0.5 L 119.52343923237942 -0.5 Z"/><text text-anchor="middle" pointer-events="none" font-size="8px" fill="#000000" x="85.32031423237942" y="3" transform="rotate(180 85.32031423237942 0)" font-family="sans-serif">TRAVELS_FROM</text></g><g class="relationship" transform="translate(166.5479970175486 55.66363609162084) rotate(519.3379132789826)"><path class="outline" fill="#A5ABB6" stroke="none" d="M 25 0.5 L 25.178264906735805 0.5 L 25.178264906735805 -0.5 L 25 -0.5 Z M 88.5845149067358 0.5 L 88.76277981347161 0.5 L 88.76277981347161 3.5 L 95.76277981347161 0 L 88.76277981347161 -3.5 L 88.76277981347161 -0.5 L 88.5845149067358 -0.5 Z"/><text text-anchor="middle" pointer-events="none" font-size="8px" fill="#000000" x="56.881389906735805" y="3" transform="rotate(180 56.881389906735805 0)" font-family="sans-serif">TRAVELS_FR…</text></g><g class="relationship" transform="translate(224.0359637965561 83.7633512141121) rotate(535.1345057662077)"><path class="outline" fill="#A5ABB6" stroke="none" d="M 25 0.5 L 47.846653650929454 0.5 L 47.846653650929454 -0.5 L 25 -0.5 Z M 116.25290365092945 0.5 L 139.0995573018589 0.5 L 139.0995573018589 3.5 L 146.0995573018589 0 L 139.0995573018589 -3.5 L 139.0995573018589 -0.5 L 116.25290365092945 -0.5 Z"/><text text-anchor="middle" pointer-events="none" font-size="8px" fill="#000000" x="82.04977865092945" y="3" transform="rotate(180 82.04977865092945 0)" font-family="sans-serif">TRAVELS_FROM</text></g><g class="relationship" transform="translate(107.05021066542808 -4.474364032639886) rotate(477.50398064152205)"><path class="outline" fill="#A5ABB6" stroke="none" d="M 25 0.5 L 25.718129571751433 0.5 L 25.718129571751433 -0.5 L 25 -0.5 Z M 83.12437957175143 0.5 L 83.84250914350287 0.5 L 83.84250914350287 3.5 L 90.84250914350287 0 L 83.84250914350287 -3.5 L 83.84250914350287 -0.5 L 83.12437957175143 -0.5 Z"/><text text-anchor="middle" pointer-events="none" font-size="8px" fill="#000000" x="54.42125457175143" y="3" transform="rotate(180 54.42125457175143 0)" font-family="sans-serif">TRAVELS_F…</text></g><g class="relationship" transform="translate(218.23784207347464 24.031368636429914) rotate(515.7329443532492)"><path class="outline" fill="#A5ABB6" stroke="none" d="M 25 0.5 L 52.62032216815321 0.5 L 52.62032216815321 -0.5 L 25 -0.5 Z M 121.02657216815321 0.5 L 148.64689433630642 0.5 L 148.64689433630642 3.5 L 155.64689433630642 0 L 148.64689433630642 -3.5 L 148.64689433630642 -0.5 L 121.02657216815321 -0.5 Z"/><text text-anchor="middle" pointer-events="none" font-size="8px" fill="#000000" x="86.82344716815321" y="3" transform="rotate(180 86.82344716815321 0)" font-family="sans-serif">TRAVELS_FROM</text></g><g class="relationship" transform="translate(133.44983211462008 -60.80330944225031) rotate(476.66796305713035)"><path class="outline" fill="#A5ABB6" stroke="none" d="M 25 0.5 L 51.30470104774952 0.5 L 51.30470104774952 -0.5 L 25 -0.5 Z M 119.71095104774952 0.5 L 146.01565209549904 0.5 L 146.01565209549904 3.5 L 153.01565209549904 0 L 146.01565209549904 -3.5 L 146.01565209549904 -0.5 L 119.71095104774952 -0.5 Z"/><text text-anchor="middle" pointer-events="none" font-size="8px" fill="#000000" x="85.50782604774952" y="3" transform="rotate(180 85.50782604774952 0)" font-family="sans-serif">TRAVELS_FROM</text></g><g class="relationship" transform="translate(177.1021809404651 -19.641452871745866) rotate(496.3362045046814)"><path class="outline" fill="#A5ABB6" stroke="none" d="M 25 0.5 L 47.69127549013932 0.5 L 47.69127549013932 -0.5 L 25 -0.5 Z M 116.09752549013932 0.5 L 138.78880098027864 0.5 L 138.78880098027864 3.5 L 145.78880098027864 0 L 138.78880098027864 -3.5 L 138.78880098027864 -0.5 L 116.09752549013932 -0.5 Z"/><text text-anchor="middle" pointer-events="none" font-size="8px" fill="#000000" x="81.89440049013932" y="3" transform="rotate(180 81.89440049013932 0)" font-family="sans-serif">TRAVELS_FROM</text></g><g class="relationship" transform="translate(8.411872170558427 -13.495338544509236) rotate(428.00760665538394)"><path class="outline" fill="#A5ABB6" stroke="none" d="M 25 0.5 L 25.067998173595747 0.5 L 25.067998173595747 -0.5 L 25 -0.5 Z M 88.47424817359575 0.5 L 88.5422463471915 0.5 L 88.5422463471915 3.5 L 95.5422463471915 0 L 88.5422463471915 -3.5 L 88.5422463471915 -0.5 L 88.47424817359575 -0.5 Z"/><text text-anchor="middle" pointer-events="none" font-size="8px" fill="#000000" x="56.77112317359575" y="3" font-family="sans-serif">TRAVELS_FR…</text></g><g class="relationship" transform="translate(73.45676500387658 -62.014143122365844) rotate(457.0784159847698)"><path class="outline" fill="#A5ABB6" stroke="none" d="M 25 0.5 L 43.05720712922319 0.5 L 43.05720712922319 -0.5 L 25 -0.5 Z M 111.46345712922319 0.5 L 129.52066425844637 0.5 L 129.52066425844637 3.5 L 136.52066425844637 0 L 129.52066425844637 -3.5 L 129.52066425844637 -0.5 L 111.46345712922319 -0.5 Z"/><text text-anchor="middle" pointer-events="none" font-size="8px" fill="#000000" x="77.26033212922319" y="3" transform="rotate(180 77.26033212922319 0)" font-family="sans-serif">TRAVELS_FROM</text></g><g class="relationship" transform="translate(14.51497401565048 -73.16182834039846) rotate(437.1719158666829)"><path class="outline" fill="#A5ABB6" stroke="none" d="M 25 0.5 L 50.20977875043238 0.5 L 50.20977875043238 -0.5 L 25 -0.5 Z M 118.61602875043238 0.5 L 143.82580750086476 0.5 L 143.82580750086476 3.5 L 150.82580750086476 0 L 143.82580750086476 -3.5 L 143.82580750086476 -0.5 L 118.61602875043238 -0.5 Z"/><text text-anchor="middle" pointer-events="none" font-size="8px" fill="#000000" x="84.41290375043238" y="3" font-family="sans-serif">TRAVELS_FROM</text></g><g class="relationship" transform="translate(-51.92623880324688 -37.14293608421484) rotate(412.08450418178876)"><path class="outline" fill="#A5ABB6" stroke="none" d="M 25 0.5 L 48.12229014510369 0.5 L 48.12229014510369 -0.5 L 25 -0.5 Z M 116.52854014510369 0.5 L 139.65083029020738 0.5 L 139.65083029020738 3.5 L 146.65083029020738 0 L 139.65083029020738 -3.5 L 139.65083029020738 -0.5 L 116.52854014510369 -0.5 Z"/><text text-anchor="middle" pointer-events="none" font-size="8px" fill="#000000" x="82.32541514510369" y="3" font-family="sans-serif">TRAVELS_FROM</text></g><g class="relationship" transform="translate(-46.48042269947138 29.071109379355487) rotate(394.67598103263686)"><path class="outline" fill="#A5ABB6" stroke="none" d="M 25 0.5 L 25.616118198465713 0.5 L 25.616118198465713 -0.5 L 25 -0.5 Z M 89.02236819846571 0.5 L 89.63848639693143 0.5 L 89.63848639693143 3.5 L 96.63848639693143 0 L 89.63848639693143 -3.5 L 89.63848639693143 -0.5 L 89.02236819846571 -0.5 Z"/><text text-anchor="middle" pointer-events="none" font-size="8px" fill="#000000" x="57.31924319846571" y="3" font-family="sans-serif">TRAVELS_FR…</text></g><g class="relationship" transform="translate(-106.28721353648169 24.63452297270203) rotate(384.7362903781586)"><path class="outline" fill="#A5ABB6" stroke="none" d="M 25 0.5 L 50.291007925733766 0.5 L 50.291007925733766 -0.5 L 25 -0.5 Z M 118.69725792573377 0.5 L 143.98826585146753 0.5 L 143.98826585146753 3.5 L 150.98826585146753 0 L 143.98826585146753 -3.5 L 143.98826585146753 -0.5 L 118.69725792573377 -0.5 Z"/><text text-anchor="middle" pointer-events="none" font-size="8px" fill="#000000" x="84.49413292573377" y="3" font-family="sans-serif">TRAVELS_FROM</text></g><g class="relationship" transform="translate(-94.43082317929974 83.44659587075797) rotate(365.7222873186755)"><path class="outline" fill="#A5ABB6" stroke="none" d="M 25 0.5 L 36.6593220354853 0.5 L 36.6593220354853 -0.5 L 25 -0.5 Z M 105.0655720354853 0.5 L 116.7248940709706 0.5 L 116.7248940709706 3.5 L 123.7248940709706 0 L 116.7248940709706 -3.5 L 116.7248940709706 -0.5 L 105.0655720354853 -0.5 Z"/><text text-anchor="middle" pointer-events="none" font-size="8px" fill="#000000" x="70.8624470354853" y="3" font-family="sans-serif">TRAVELS_FROM</text></g><g class="relationship" transform="translate(-113.58508287881354 140.29296470554982) rotate(345.8886139875659)"><path class="outline" fill="#A5ABB6" stroke="none" d="M 25 0.5 L 48.466174047371666 0.5 L 48.466174047371666 -0.5 L 25 -0.5 Z M 116.87242404737167 0.5 L 140.33859809474333 0.5 L 140.33859809474333 3.5 L 147.33859809474333 0 L 140.33859809474333 -3.5 L 140.33859809474333 -0.5 L 116.87242404737167 -0.5 Z"/><text text-anchor="middle" pointer-events="none" font-size="8px" fill="#000000" x="82.66929904737167" y="3" font-family="sans-serif">TRAVELS_FROM</text></g><g class="relationship" transform="translate(-54.57703818650334 151.06544484100115) rotate(333.97798348455785)"><path class="outline" fill="#A5ABB6" stroke="none" d="M 25 0.5 L 27.960974754328902 0.5 L 27.960974754328902 -0.5 L 25 -0.5 Z M 85.3672247543289 0.5 L 88.3281995086578 0.5 L 88.3281995086578 3.5 L 95.3281995086578 0 L 88.3281995086578 -3.5 L 88.3281995086578 -0.5 L 85.3672247543289 -0.5 Z"/><text text-anchor="middle" pointer-events="none" font-size="8px" fill="#000000" x="56.6640997543289" y="3" font-family="sans-serif">TRAVELS_F…</text></g><g class="relationship" transform="translate(-76.4484007629147 206.91389025067616) rotate(320.1154616205794)"><path class="outline" fill="#A5ABB6" stroke="none" d="M 25 0.5 L 47.006166724480536 0.5 L 47.006166724480536 -0.5 L 25 -0.5 Z M 115.41241672448054 0.5 L 137.41858344896107 0.5 L 137.41858344896107 3.5 L 144.41858344896107 0 L 137.41858344896107 -3.5 L 137.41858344896107 -0.5 L 115.41241672448054 -0.5 Z"/><text text-anchor="middle" pointer-events="none" font-size="8px" fill="#000000" x="81.20929172448054" y="3" font-family="sans-serif">TRAVELS_FROM</text></g><g class="relationship" transform="translate(-32.93466131609901 248.22957041784213) rotate(299.9746555618737)"><path class="outline" fill="#A5ABB6" stroke="none" d="M 25 0.5 L 48.85081313783077 0.5 L 48.85081313783077 -0.5 L 25 -0.5 Z M 117.25706313783077 0.5 L 141.10787627566154 0.5 L 141.10787627566154 3.5 L 148.10787627566154 0 L 141.10787627566154 -3.5 L 141.10787627566154 -0.5 L 117.25706313783077 -0.5 Z"/><text text-anchor="middle" pointer-events="none" font-size="8px" fill="#000000" x="83.05393813783077" y="3" font-family="sans-serif">TRAVELS_FROM</text></g><g class="relationship" transform="translate(53.55295400931014 98.27548003017117) rotate(400.0450585912266)"><path class="outline" fill="#A5ABB6" stroke="none" d="M 6.953439040707552 24.018736134675446 L 17.306200844808384 62.65576918623819 A 17.916697508022974 17.916697508022974 0 1 1 -17.306200844808384 62.65576918623819 L -8.765172356425198 30.780216918698923 L -4.901469051268926 31.815493099109005 L -6.4704761275630185 24.148145657226706 L -11.662949835292403 30.00375978339136 L -7.79924653013613 31.039035963801442 L -16.340275018519314 62.91458823134071 A 16.916697508022974 16.916697508022974 0 1 0 16.340275018519314 62.91458823134071 L 5.987513214418485 24.277555179777966 Z"/><text text-anchor="middle" pointer-events="none" font-size="8px" fill="#000000" x="0" y="94.20964923467838" font-family="sans-serif">CONNECTS</text></g></g><g class="layer nodes"><g class="node" transform="translate(14.497018597704832,211.5221978941631)"><circle class="outline" cx="0" cy="0" r="25" fill="#DE9BF9" stroke="#BF85D6" stroke-width="2px"/><text text-anchor="middle" pointer-events="none" font-family="sans-serif" dy="1.5625" font-size="25" fill="#FFFFFF"/><text class="caption" text-anchor="middle" pointer-events="none" y="5" font-size="10px" fill="#FFFFFF" font-family="sans-serif"> 857</text></g><g class="node" transform="translate(53.55295400931014,98.27548003017117)"><circle class="outline" cx="0" cy="0" r="25" fill="#FF756E" stroke="#E06760" stroke-width="2px"/><text text-anchor="middle" pointer-events="none" font-family="sans-serif" dy="1.5625" font-size="25" fill="#FFFFFF"/><text text-anchor="middle" pointer-events="none" font-family="sans-serif" dy="1.5625" font-size="25" fill="#FFFFFF"/><text text-anchor="middle" pointer-events="none" font-family="sans-serif" dy="1.5625" font-size="25" fill="#FFFFFF"/><text class="caption" text-anchor="middle" pointer-events="none" y="-5" font-size="10px" fill="#FFFFFF" font-family="sans-serif"> Porter</text><text class="caption" text-anchor="middle" pointer-events="none" y="5" font-size="10px" fill="#FFFFFF" font-family="sans-serif"> Square</text><text class="caption" text-anchor="middle" pointer-events="none" y="15" font-size="10px" fill="#FFFFFF" font-family="sans-serif"> Station</text></g><g class="node" transform="translate(104.57351940376807,207.65199125908316)"><circle class="outline" cx="0" cy="0" r="25" fill="#DE9BF9" stroke="#BF85D6" stroke-width="2px"/><text text-anchor="middle" pointer-events="none" font-family="sans-serif" dy="1.5625" font-size="25" fill="#FFFFFF"/><text class="caption" text-anchor="middle" pointer-events="none" y="5" font-size="10px" fill="#FFFFFF" font-family="sans-serif"> 662</text></g><g class="node" transform="translate(35.14357299552156,267.85480899110155)"><circle class="outline" cx="0" cy="0" r="25" fill="#DE9BF9" stroke="#BF85D6" stroke-width="2px"/><text text-anchor="middle" pointer-events="none" font-family="sans-serif" dy="1.5625" font-size="25" fill="#FFFFFF"/><text class="caption" text-anchor="middle" pointer-events="none" y="5" font-size="10px" fill="#FFFFFF" font-family="sans-serif"> 746</text></g><g class="node" transform="translate(156.89543729463077,241.20870871246308)"><circle class="outline" cx="0" cy="0" r="25" fill="#DE9BF9" stroke="#BF85D6" stroke-width="2px"/><text text-anchor="middle" pointer-events="none" font-family="sans-serif" dy="1.5625" font-size="25" fill="#FFFFFF"/><text class="caption" text-anchor="middle" pointer-events="none" y="5" font-size="10px" fill="#FFFFFF" font-family="sans-serif"> 646</text></g><g class="node" transform="translate(95.13181030479308,266.9024262724562)"><circle class="outline" cx="0" cy="0" r="25" fill="#DE9BF9" stroke="#BF85D6" stroke-width="2px"/><text text-anchor="middle" pointer-events="none" font-family="sans-serif" dy="1.5625" font-size="25" fill="#FFFFFF"/><text class="caption" text-anchor="middle" pointer-events="none" y="5" font-size="10px" fill="#FFFFFF" font-family="sans-serif"> 639</text></g><g class="node" transform="translate(198.65045420446233,198.1358338690079)"><circle class="outline" cx="0" cy="0" r="25" fill="#DE9BF9" stroke="#BF85D6" stroke-width="2px"/><text text-anchor="middle" pointer-events="none" font-family="sans-serif" dy="1.5625" font-size="25" fill="#FFFFFF"/><text class="caption" text-anchor="middle" pointer-events="none" y="5" font-size="10px" fill="#FFFFFF" font-family="sans-serif"> 744</text></g><g class="node" transform="translate(163.96381177032552,146.49260288901084)"><circle class="outline" cx="0" cy="0" r="25" fill="#DE9BF9" stroke="#BF85D6" stroke-width="2px"/><text text-anchor="middle" pointer-events="none" font-family="sans-serif" dy="1.5625" font-size="25" fill="#FFFFFF"/><text class="caption" text-anchor="middle" pointer-events="none" y="5" font-size="10px" fill="#FFFFFF" font-family="sans-serif"> 635</text></g><g class="node" transform="translate(225.28186293547154,143.7218739507524)"><circle class="outline" cx="0" cy="0" r="25" fill="#DE9BF9" stroke="#BF85D6" stroke-width="2px"/><text text-anchor="middle" pointer-events="none" font-family="sans-serif" dy="1.5625" font-size="25" fill="#FFFFFF"/><text class="caption" text-anchor="middle" pointer-events="none" y="5" font-size="10px" fill="#FFFFFF" font-family="sans-serif"> 1091</text></g><g class="node" transform="translate(166.5479970175486,55.66363609162084)"><circle class="outline" cx="0" cy="0" r="25" fill="#DE9BF9" stroke="#BF85D6" stroke-width="2px"/><text text-anchor="middle" pointer-events="none" font-family="sans-serif" dy="1.5625" font-size="25" fill="#FFFFFF"/><text class="caption" text-anchor="middle" pointer-events="none" y="5" font-size="10px" fill="#FFFFFF" font-family="sans-serif"> 703</text></g><g class="node" transform="translate(224.0359637965561,83.7633512141121)"><circle class="outline" cx="0" cy="0" r="25" fill="#DE9BF9" stroke="#BF85D6" stroke-width="2px"/><text text-anchor="middle" pointer-events="none" font-family="sans-serif" dy="1.5625" font-size="25" fill="#FFFFFF"/><text class="caption" text-anchor="middle" pointer-events="none" y="5" font-size="10px" fill="#FFFFFF" font-family="sans-serif"> 1089</text></g><g class="node" transform="translate(107.05021066542808,-4.474364032639886)"><circle class="outline" cx="0" cy="0" r="25" fill="#DE9BF9" stroke="#BF85D6" stroke-width="2px"/><text text-anchor="middle" pointer-events="none" font-family="sans-serif" dy="1.5625" font-size="25" fill="#FFFFFF"/><text class="caption" text-anchor="middle" pointer-events="none" y="5" font-size="10px" fill="#FFFFFF" font-family="sans-serif"> 882</text></g><g class="node" transform="translate(218.23784207347464,24.031368636429914)"><circle class="outline" cx="0" cy="0" r="25" fill="#DE9BF9" stroke="#BF85D6" stroke-width="2px"/><text text-anchor="middle" pointer-events="none" font-family="sans-serif" dy="1.5625" font-size="25" fill="#FFFFFF"/><text class="caption" text-anchor="middle" pointer-events="none" y="5" font-size="10px" fill="#FFFFFF" font-family="sans-serif"> 683</text></g><g class="node" transform="translate(133.44983211462008,-60.80330944225031)"><circle class="outline" cx="0" cy="0" r="25" fill="#DE9BF9" stroke="#BF85D6" stroke-width="2px"/><text text-anchor="middle" pointer-events="none" font-family="sans-serif" dy="1.5625" font-size="25" fill="#FFFFFF"/><text class="caption" text-anchor="middle" pointer-events="none" y="5" font-size="10px" fill="#FFFFFF" font-family="sans-serif"> 653</text></g><g class="node" transform="translate(177.1021809404651,-19.641452871745866)"><circle class="outline" cx="0" cy="0" r="25" fill="#DE9BF9" stroke="#BF85D6" stroke-width="2px"/><text text-anchor="middle" pointer-events="none" font-family="sans-serif" dy="1.5625" font-size="25" fill="#FFFFFF"/><text class="caption" text-anchor="middle" pointer-events="none" y="5" font-size="10px" fill="#FFFFFF" font-family="sans-serif"> 940</text></g><g class="node" transform="translate(8.411872170558427,-13.495338544509236)"><circle class="outline" cx="0" cy="0" r="25" fill="#DE9BF9" stroke="#BF85D6" stroke-width="2px"/><text text-anchor="middle" pointer-events="none" font-family="sans-serif" dy="1.5625" font-size="25" fill="#FFFFFF"/><text class="caption" text-anchor="middle" pointer-events="none" y="5" font-size="10px" fill="#FFFFFF" font-family="sans-serif"> 940</text></g><g class="node" transform="translate(73.45676500387658,-62.014143122365844)"><circle class="outline" cx="0" cy="0" r="25" fill="#DE9BF9" stroke="#BF85D6" stroke-width="2px"/><text text-anchor="middle" pointer-events="none" font-family="sans-serif" dy="1.5625" font-size="25" fill="#FFFFFF"/><text class="caption" text-anchor="middle" pointer-events="none" y="5" font-size="10px" fill="#FFFFFF" font-family="sans-serif"> 816</text></g><g class="node" transform="translate(14.51497401565048,-73.16182834039846)"><circle class="outline" cx="0" cy="0" r="25" fill="#DE9BF9" stroke="#BF85D6" stroke-width="2px"/><text text-anchor="middle" pointer-events="none" font-family="sans-serif" dy="1.5625" font-size="25" fill="#FFFFFF"/><text class="caption" text-anchor="middle" pointer-events="none" y="5" font-size="10px" fill="#FFFFFF" font-family="sans-serif"> 813</text></g><g class="node" transform="translate(-51.92623880324688,-37.14293608421484)"><circle class="outline" cx="0" cy="0" r="25" fill="#DE9BF9" stroke="#BF85D6" stroke-width="2px"/><text text-anchor="middle" pointer-events="none" font-family="sans-serif" dy="1.5625" font-size="25" fill="#FFFFFF"/><text class="caption" text-anchor="middle" pointer-events="none" y="5" font-size="10px" fill="#FFFFFF" font-family="sans-serif"> 637</text></g><g class="node" transform="translate(-46.48042269947138,29.071109379355487)"><circle class="outline" cx="0" cy="0" r="25" fill="#DE9BF9" stroke="#BF85D6" stroke-width="2px"/><text text-anchor="middle" pointer-events="none" font-family="sans-serif" dy="1.5625" font-size="25" fill="#FFFFFF"/><text class="caption" text-anchor="middle" pointer-events="none" y="5" font-size="10px" fill="#FFFFFF" font-family="sans-serif"> 868</text></g><g class="node" transform="translate(-106.28721353648169,24.63452297270203)"><circle class="outline" cx="0" cy="0" r="25" fill="#DE9BF9" stroke="#BF85D6" stroke-width="2px"/><text text-anchor="middle" pointer-events="none" font-family="sans-serif" dy="1.5625" font-size="25" fill="#FFFFFF"/><text class="caption" text-anchor="middle" pointer-events="none" y="5" font-size="10px" fill="#FFFFFF" font-family="sans-serif"> 650</text></g><g class="node" transform="translate(-94.43082317929974,83.44659587075797)"><circle class="outline" cx="0" cy="0" r="25" fill="#DE9BF9" stroke="#BF85D6" stroke-width="2px"/><text text-anchor="middle" pointer-events="none" font-family="sans-serif" dy="1.5625" font-size="25" fill="#FFFFFF"/><text class="caption" text-anchor="middle" pointer-events="none" y="5" font-size="10px" fill="#FFFFFF" font-family="sans-serif"> 679</text></g><g class="node" transform="translate(-113.58508287881354,140.29296470554982)"><circle class="outline" cx="0" cy="0" r="25" fill="#DE9BF9" stroke="#BF85D6" stroke-width="2px"/><text text-anchor="middle" pointer-events="none" font-family="sans-serif" dy="1.5625" font-size="25" fill="#FFFFFF"/><text class="caption" text-anchor="middle" pointer-events="none" y="5" font-size="10px" fill="#FFFFFF" font-family="sans-serif"> 783</text></g><g class="node" transform="translate(-54.57703818650334,151.06544484100115)"><circle class="outline" cx="0" cy="0" r="25" fill="#DE9BF9" stroke="#BF85D6" stroke-width="2px"/><text text-anchor="middle" pointer-events="none" font-family="sans-serif" dy="1.5625" font-size="25" fill="#FFFFFF"/><text class="caption" text-anchor="middle" pointer-events="none" y="5" font-size="10px" fill="#FFFFFF" font-family="sans-serif"> 1272</text></g><g class="node" transform="translate(-76.4484007629147,206.91389025067616)"><circle class="outline" cx="0" cy="0" r="25" fill="#DE9BF9" stroke="#BF85D6" stroke-width="2px"/><text text-anchor="middle" pointer-events="none" font-family="sans-serif" dy="1.5625" font-size="25" fill="#FFFFFF"/><text class="caption" text-anchor="middle" pointer-events="none" y="5" font-size="10px" fill="#FFFFFF" font-family="sans-serif"> 998</text></g><g class="node" transform="translate(-32.93466131609901,248.22957041784213)"><circle class="outline" cx="0" cy="0" r="25" fill="#DE9BF9" stroke="#BF85D6" stroke-width="2px"/><text text-anchor="middle" pointer-events="none" font-family="sans-serif" dy="1.5625" font-size="25" fill="#FFFFFF"/><text class="caption" text-anchor="middle" pointer-events="none" y="5" font-size="10px" fill="#FFFFFF" font-family="sans-serif"> 736</text></g></g></svg>