<svg xmlns="http://www.w3.org/2000/svg" width="416.67474365234375" height="324.2871398925781" viewBox="-118.81458282470703 -11.976837158203125 416.67474365234375 324.2871398925781"><title>Neo4j Graph Visualization</title><desc>Created using Neo4j (http://www.neo4j.com/)</desc><g class="layer relationships"><g class="relationship" transform="translate(197.0404499915137 125.06112826109305) rotate(242.93303390139488)"><path class="outline" fill="#A5ABB6" stroke="none" d="M 6.953439040707552 24.018736134675446 L 17.306200844808384 62.65576918623819 A 17.916697508022974 17.916697508022974 0 1 1 -17.306200844808384 62.65576918623819 L -8.765172356425198 30.780216918698923 L -4.901469051268926 31.815493099109005 L -6.4704761275630185 24.148145657226706 L -11.662949835292403 30.00375978339136 L -7.79924653013613 31.039035963801442 L -16.340275018519314 62.91458823134071 A 16.916697508022974 16.916697508022974 0 1 0 16.340275018519314 62.91458823134071 L 5.987513214418485 24.277555179777966 Z"/><text text-anchor="middle" pointer-events="none" font-size="8px" fill="#000000" x="0" y="94.20964923467838" transform="rotate(180 0 91.20964923467838)" font-family="sans-serif">CONNECTS</text></g><g class="relationship" transform="translate(138.9657516726046 212.86708379732784) rotate(303.48057724708843)"><path class="outline" fill="#A5ABB6" stroke="none" d="M 24.018736134675446,-6.953439040707552 L 24.277555179777966,-5.987513214418485 A 102.24999351608594 102.24999351608594 0 0 1 24.988048500157003,-6.175155536408866 L 24.73617804542547,-7.142916495547709 A 103.24999351608594 103.24999351608594 0 0 0 24.018736134675446,-6.953439040707552 Z M 73.5029943165133,-7.931529931646082 L 73.2825469084501,-6.956131069498795 A 102.24999351608594 102.24999351608594 0 0 1 73.99873591304357,-6.791559780980501 L 73.31638080719114,-3.8701916923074715 L 80.92898730425605,-5.686292548770318 L 74.90854272084684,-10.68671723254454 L 74.2261876149944,-7.765349143871511 A 103.24999351608594 103.24999351608594 0 0 0 73.5029943165133,-7.931529931646082"/><text text-anchor="middle" pointer-events="none" font-size="8px" fill="#000000" x="49.080436869322895" y="-6.958165085509847" font-family="sans-serif">CONNEC…</text></g><g class="relationship" transform="translate(88.33485602775649 120.53259037016718) rotate(362.38549055570144)"><path class="outline" fill="#A5ABB6" stroke="none" d="M 25 0.5 L 25.399939830947424 0.5 L 25.399939830947424 -0.5 L 25 -0.5 Z M 76.39993983094743 0.5 L 76.79987966189485 0.5 L 76.79987966189485 3.5 L 83.79987966189485 0 L 76.79987966189485 -3.5 L 76.79987966189485 -0.5 L 76.39993983094743 -0.5 Z"/><text text-anchor="middle" pointer-events="none" font-size="8px" fill="#000000" x="50.899939830947424" y="3" font-family="sans-serif">CONNECTS</text></g><g class="relationship" transform="translate(88.33485602775649 120.53259037016718) rotate(255.0231706241497)"><path class="outline" fill="#A5ABB6" stroke="none" d="M 25 0.5 L 25.574621848769027 0.5 L 25.574621848769027 -0.5 L 25 -0.5 Z M 74.57462184876903 0.5 L 75.14924369753805 0.5 L 75.14924369753805 3.5 L 82.14924369753805 0 L 75.14924369753805 -3.5 L 75.14924369753805 -0.5 L 74.57462184876903 -0.5 Z"/><text text-anchor="middle" pointer-events="none" font-size="8px" fill="#000000" x="50.07462184876903" y="3" transform="rotate(180 50.07462184876903 0)" font-family="sans-serif">CONNEC…</text></g><g class="relationship" transform="translate(-16.39141065691567 90.07786550690318) rotate(316.51941559223417)"><path class="outline" fill="#A5ABB6" stroke="none" d="M 25 0.5 L 25.08369165973177 0.5 L 25.08369165973177 -0.5 L 25 -0.5 Z M 74.08369165973177 0.5 L 74.16738331946354 0.5 L 74.16738331946354 3.5 L 81.16738331946354 0 L 74.16738331946354 -3.5 L 74.16738331946354 -0.5 L 74.08369165973177 -0.5 Z"/><text text-anchor="middle" pointer-events="none" font-size="8px" fill="#000000" x="49.58369165973177" y="3" font-family="sans-serif">CONNEC…</text></g><g class="relationship" transform="translate(138.9657516726046 212.86708379732784) rotate(241.2621841290744)"><path class="outline" fill="#A5ABB6" stroke="none" d="M 24.018736134675446,6.953439040707552 L 24.277555179777966,5.987513214418485 A 102.31262484522394 102.31262484522394 0 0 0 25.0033132388614,6.179128838536542 L 24.751587727525422,7.146927509202428 A 103.31262484522394 103.31262484522394 0 0 1 24.018736134675446,6.953439040707552 Z M 73.51882868000264,7.9353275944268375 L 73.29851855169112,6.959897716186802 A 102.31262484522394 102.31262484522394 0 0 0 74.03009126791869,6.791842164055909 L 73.34770978492068,3.8704802365191235 L 80.96033267933753,5.686512358316699 L 74.93993324524936,10.686991400771625 L 74.25755176225135,7.7656294732348385 A 103.31262484522394 103.31262484522394 0 0 1 73.51882868000264,7.9353275944268375"/><text text-anchor="middle" pointer-events="none" font-size="8px" fill="#000000" x="49.09609845397447" y="12.960298512502277" transform="rotate(180 49.09609845397447 9.960298512502277)" font-family="sans-serif">CONNEC…</text></g><g class="relationship" transform="translate(-16.39141065691567 90.07786550690318) rotate(376.21459547557043)"><path class="outline" fill="#A5ABB6" stroke="none" d="M 24.018736134675446,6.953439040707552 L 24.277555179777966,5.987513214418485 A 109.82785286252687 109.82785286252687 0 0 0 25.875119729833056,6.402737711376375 L 25.63084676305599,7.372444222492973 A 110.82785286252687 110.82785286252687 0 0 1 24.018736134675446,6.953439040707552 Z M 76.40084809603698,8.166580769709242 L 76.18702321086019,7.189708762494831 A 109.82785286252687 109.82785286252687 0 0 0 77.79679278633094,6.824652892311402 L 77.11134650975416,3.9040085452662097 L 84.72587064219918,5.71205230480646 L 78.71072115509998,10.718845355038324 L 78.02527487852319,7.798201007993132 A 110.82785286252687 110.82785286252687 0 0 1 76.40084809603698,8.166580769709242"/><text text-anchor="middle" pointer-events="none" font-size="8px" fill="#000000" x="50.97757496490189" y="13.216312215662981" font-family="sans-serif">CONNECTS</text></g><g class="relationship" transform="translate(88.33485602775649 120.53259037016718) rotate(398.7383898023224)"><path class="outline" fill="#A5ABB6" stroke="none" d="M 6.953439040707552 24.018736134675446 L 17.306200844808384 62.65576918623819 A 17.916697508022974 17.916697508022974 0 1 1 -17.306200844808384 62.65576918623819 L -8.765172356425198 30.780216918698923 L -4.901469051268926 31.815493099109005 L -6.4704761275630185 24.148145657226706 L -11.662949835292403 30.00375978339136 L -7.79924653013613 31.039035963801442 L -16.340275018519314 62.91458823134071 A 16.916697508022974 16.916697508022974 0 1 0 16.340275018519314 62.91458823134071 L 5.987513214418485 24.277555179777966 Z"/><text text-anchor="middle" pointer-events="none" font-size="8px" fill="#000000" x="0" y="94.20964923467838" font-family="sans-serif">CONNECTS</text></g><g class="relationship" transform="translate(88.33485602775649 120.53259037016718) rotate(196.21459547557043)"><path class="outline" fill="#A5ABB6" stroke="none" d="M 24.018736134675446,6.953439040707552 L 24.277555179777966,5.987513214418485 A 109.82785286252687 109.82785286252687 0 0 0 25.875119729833056,6.402737711376375 L 25.63084676305599,7.372444222492973 A 110.82785286252687 110.82785286252687 0 0 1 24.018736134675446,6.953439040707552 Z M 76.40084809603698,8.166580769709242 L 76.18702321086019,7.189708762494831 A 109.82785286252687 109.82785286252687 0 0 0 77.79679278633094,6.824652892311402 L 77.11134650975416,3.9040085452662097 L 84.72587064219918,5.71205230480646 L 78.71072115509998,10.718845355038324 L 78.02527487852319,7.798201007993132 A 110.82785286252687 110.82785286252687 0 0 1 76.40084809603698,8.166580769709242"/><text text-anchor="middle" pointer-events="none" font-size="8px" fill="#000000" x="50.97757496490189" y="13.216312215662981" transform="rotate(180 50.97757496490189 10.216312215662981)" font-family="sans-serif">CONNECTS</text></g><g class="relationship" transform="translate(-16.39141065691567 90.07786550690318) rotate(436.3670055339023)"><path class="outline" fill="#A5ABB6" stroke="none" d="M 6.953439040707552 24.018736134675446 L 17.306200844808384 62.65576918623819 A 17.916697508022974 17.916697508022974 0 1 1 -17.306200844808384 62.65576918623819 L -8.765172356425198 30.780216918698923 L -4.901469051268926 31.815493099109005 L -6.4704761275630185 24.148145657226706 L -11.662949835292403 30.00375978339136 L -7.79924653013613 31.039035963801442 L -16.340275018519314 62.91458823134071 A 16.916697508022974 16.916697508022974 0 1 0 16.340275018519314 62.91458823134071 L 5.987513214418485 24.277555179777966 Z"/><text text-anchor="middle" pointer-events="none" font-size="8px" fill="#000000" x="0" y="94.20964923467838" font-family="sans-serif">CONNECTS</text></g><g class="relationship" transform="translate(138.9657516726046 212.86708379732784) rotate(362.37138068808144)"><path class="outline" fill="#A5ABB6" stroke="none" d="M 6.953439040707552 24.018736134675446 L 17.306200844808384 62.65576918623819 A 17.916697508022974 17.916697508022974 0 1 1 -17.306200844808384 62.65576918623819 L -8.765172356425198 30.780216918698923 L -4.901469051268926 31.815493099109005 L -6.4704761275630185 24.148145657226706 L -11.662949835292403 30.00375978339136 L -7.79924653013613 31.039035963801442 L -16.340275018519314 62.91458823134071 A 16.916697508022974 16.916697508022974 0 1 0 16.340275018519314 62.91458823134071 L 5.987513214418485 24.277555179777966 Z"/><text text-anchor="middle" pointer-events="none" font-size="8px" fill="#000000" x="0" y="94.20964923467838" font-family="sans-serif">CONNECTS</text></g><g class="relationship" transform="translate(197.0404499915137 125.06112826109305) rotate(483.48057724708843)"><path class="outline" fill="#A5ABB6" stroke="none" d="M 24.018736134675446,-6.953439040707552 L 24.277555179777966,-5.987513214418485 A 102.24999351608594 102.24999351608594 0 0 1 24.988048500157003,-6.175155536408866 L 24.73617804542547,-7.142916495547709 A 103.24999351608594 103.24999351608594 0 0 0 24.018736134675446,-6.953439040707552 Z M 73.5029943165133,-7.931529931646082 L 73.2825469084501,-6.956131069498795 A 102.24999351608594 102.24999351608594 0 0 1 73.99873591304357,-6.791559780980501 L 73.31638080719114,-3.8701916923074715 L 80.92898730425605,-5.686292548770318 L 74.90854272084684,-10.68671723254454 L 74.2261876149944,-7.765349143871511 A 103.24999351608594 103.24999351608594 0 0 0 73.5029943165133,-7.931529931646082"/><text text-anchor="middle" pointer-events="none" font-size="8px" fill="#000000" x="49.080436869322895" y="-6.958165085509847" transform="rotate(180 49.080436869322895 -9.958165085509847)" font-family="sans-serif">CONNEC…</text></g><g class="relationship" transform="translate(88.33485602775649 120.53259037016718) rotate(421.2621841290744)"><path class="outline" fill="#A5ABB6" stroke="none" d="M 24.018736134675446,6.953439040707552 L 24.277555179777966,5.987513214418485 A 102.31262484522394 102.31262484522394 0 0 0 25.0033132388614,6.179128838536542 L 24.751587727525422,7.146927509202428 A 103.31262484522394 103.31262484522394 0 0 1 24.018736134675446,6.953439040707552 Z M 73.51882868000264,7.9353275944268375 L 73.29851855169112,6.959897716186802 A 102.31262484522394 102.31262484522394 0 0 0 74.03009126791869,6.791842164055909 L 73.34770978492068,3.8704802365191235 L 80.96033267933753,5.686512358316699 L 74.93993324524936,10.686991400771625 L 74.25755176225135,7.7656294732348385 A 103.31262484522394 103.31262484522394 0 0 1 73.51882868000264,7.9353275944268375"/><text text-anchor="middle" pointer-events="none" font-size="8px" fill="#000000" x="49.09609845397447" y="12.960298512502277" font-family="sans-serif">CONNEC…</text></g></g><g class="layer nodes"><g class="node" transform="translate(197.0404499915137,125.06112826109305)"><circle class="outline" cx="0" cy="0" r="25" fill="#FF756E" stroke="#E06760" stroke-width="2px"/><text text-anchor="middle" pointer-events="none" font-family="sans-serif" dy="1.5625" font-size="25" fill="#FFFFFF"/><text class="caption" text-anchor="middle" pointer-events="none" y="5" font-size="10px" fill="#FFFFFF" font-family="sans-serif"> Cambri…</text></g><g class="node" transform="translate(60.64444841893182,17.02316204882274)"><circle class="outline" cx="0" cy="0" r="25" fill="#FF756E" stroke="#E06760" stroke-width="2px"/><text text-anchor="middle" pointer-events="none" font-family="sans-serif" dy="1.5625" font-size="25" fill="#FFFFFF"/><text text-anchor="middle" pointer-events="none" font-family="sans-serif" dy="1.5625" font-size="25" fill="#FFFFFF"/><text text-anchor="middle" pointer-events="none" font-family="sans-serif" dy="1.5625" font-size="25" fill="#FFFFFF"/><text class="caption" text-anchor="middle" pointer-events="none" y="-5" font-size="10px" fill="#FFFFFF" font-family="sans-serif"> Harvard</text><text class="caption" text-anchor="middle" pointer-events="none" y="5" font-size="10px" fill="#FFFFFF" font-family="sans-serif"> University</text><text class="caption" text-anchor="middle" pointer-events="none" y="15" font-size="10px" fill="#FFFFFF" font-family="sans-serif"> Radcl…</text></g><g class="node" transform="translate(88.33485602775649,120.53259037016718)"><circle class="outline" cx="0" cy="0" r="25" fill="#FF756E" stroke="#E06760" stroke-width="2px"/><text text-anchor="middle" pointer-events="none" font-family="sans-serif" dy="1.5625" font-size="25" fill="#FFFFFF"/><text text-anchor="middle" pointer-events="none" font-family="sans-serif" dy="1.5625" font-size="25" fill="#FFFFFF"/><text class="caption" text-anchor="middle" pointer-events="none" y="0" font-size="10px" fill="#FFFFFF" font-family="sans-serif"> Lower</text><text class="caption" text-anchor="middle" pointer-events="none" y="10" font-size="10px" fill="#FFFFFF" font-family="sans-serif"> Cambri…</text></g><g class="node" transform="translate(-16.39141065691567,90.07786550690318)"><circle class="outline" cx="0" cy="0" r="25" fill="#FF756E" stroke="#E06760" stroke-width="2px"/><text text-anchor="middle" pointer-events="none" font-family="sans-serif" dy="1.5625" font-size="25" fill="#FFFFFF"/><text text-anchor="middle" pointer-events="none" font-family="sans-serif" dy="1.5625" font-size="25" fill="#FFFFFF"/><text text-anchor="middle" pointer-events="none" font-family="sans-serif" dy="1.5625" font-size="25" fill="#FFFFFF"/><text class="caption" text-anchor="middle" pointer-events="none" y="-5" font-size="10px" fill="#FFFFFF" font-family="sans-serif"> Harvard</text><text class="caption" text-anchor="middle" pointer-events="none" y="5" font-size="10px" fill="#FFFFFF" font-family="sans-serif"> University</text><text class="caption" text-anchor="middle" pointer-events="none" y="15" font-size="10px" fill="#FFFFFF" font-family="sans-serif"> River</text></g><g class="node" transform="translate(138.9657516726046,212.86708379732784)"><circle class="outline" cx="0" cy="0" r="25" fill="#FF756E" stroke="#E06760" stroke-width="2px"/><text text-anchor="middle" pointer-events="none" font-family="sans-serif" dy="1.5625" font-size="25" fill="#FFFFFF"/><text text-anchor="middle" pointer-events="none" font-family="sans-serif" dy="1.5625" font-size="25" fill="#FFFFFF"/><text class="caption" text-anchor="middle" pointer-events="none" y="0" font-size="10px" fill="#FFFFFF" font-family="sans-serif"> Kendall</text><text class="caption" text-anchor="middle" pointer-events="none" y="10" font-size="10px" fill="#FFFFFF" font-family="sans-serif"> Street</text></g></g></svg>