<svg xmlns="http://www.w3.org/2000/svg" width="758.7137451171875" height="452.0528564453125" viewBox="-262.3385925292969 -126.88694763183594 758.7137451171875 452.0528564453125"><title>Neo4j Graph Visualization</title><desc>Created using Neo4j (http://www.neo4j.com/)</desc><g class="layer relationships"><g class="relationship" transform="translate(271.2214922239724 11.142628969952113) rotate(492.3748993200808)"><path class="outline" fill="#A5ABB6" stroke="none" d="M 25 0.5 L 113.2199170566254 0.5 L 113.2199170566254 -0.5 L 25 -0.5 Z M 168.4816358066254 0.5 L 256.7015528632508 0.5 L 256.7015528632508 3.5 L 263.7015528632508 0 L 256.7015528632508 -3.5 L 256.7015528632508 -0.5 L 168.4816358066254 -0.5 Z"/><text text-anchor="middle" pointer-events="none" font-size="8px" fill="#000000" x="140.8507764316254" y="3" transform="rotate(180 140.8507764316254 0)" font-family="sans-serif">TRAVELS_TO</text></g><g class="relationship" transform="translate(271.2214922239724 11.142628969952113) rotate(194.7578471000777)"><path class="outline" fill="#A5ABB6" stroke="none" d="M 25 0.5 L 34.694317807138646 0.5 L 34.694317807138646 -0.5 L 25 -0.5 Z M 103.10056780713865 0.5 L 112.79488561427729 0.5 L 112.79488561427729 3.5 L 119.79488561427729 0 L 112.79488561427729 -3.5 L 112.79488561427729 -0.5 L 103.10056780713865 -0.5 Z"/><text text-anchor="middle" pointer-events="none" font-size="8px" fill="#000000" x="68.89744280713865" y="3" transform="rotate(180 68.89744280713865 0)" font-family="sans-serif">TRAVELS_FROM</text></g><g class="relationship" transform="translate(345.92151509443386 211.72832219497113) rotate(537.3012929103513)"><path class="outline" fill="#A5ABB6" stroke="none" d="M 25 0.5 L 97.08574069141326 0.5 L 97.08574069141326 -0.5 L 25 -0.5 Z M 165.49199069141326 0.5 L 237.57773138282653 0.5 L 237.57773138282653 3.5 L 244.57773138282653 0 L 237.57773138282653 -3.5 L 237.57773138282653 -0.5 L 165.49199069141326 -0.5 Z"/><text text-anchor="middle" pointer-events="none" font-size="8px" fill="#000000" x="131.28886569141326" y="3" transform="rotate(180 131.28886569141326 0)" font-family="sans-serif">TRAVELS_FROM</text></g><g class="relationship" transform="translate(345.92151509443386 211.72832219497113) rotate(284.01616850229084)"><path class="outline" fill="#A5ABB6" stroke="none" d="M 25 0.5 L 79.2957122026445 0.5 L 79.2957122026445 -0.5 L 25 -0.5 Z M 134.5574309526445 0.5 L 188.853143155289 0.5 L 188.853143155289 3.5 L 195.853143155289 0 L 188.853143155289 -3.5 L 188.853143155289 -0.5 L 134.5574309526445 -0.5 Z"/><text text-anchor="middle" pointer-events="none" font-size="8px" fill="#000000" x="106.9265715776445" y="3" font-family="sans-serif">TRAVELS_TO</text></g><g class="relationship" transform="translate(170.61130122821524 115.30485816253201) rotate(204.49454694721612)"><path class="outline" fill="#A5ABB6" stroke="none" d="M 25 0.5 L 75.13465223212917 0.5 L 75.13465223212917 -0.5 L 25 -0.5 Z M 130.39637098212916 0.5 L 180.53102321425834 0.5 L 180.53102321425834 3.5 L 187.53102321425834 0 L 180.53102321425834 -3.5 L 180.53102321425834 -0.5 L 130.39637098212916 -0.5 Z"/><text text-anchor="middle" pointer-events="none" font-size="8px" fill="#000000" x="102.76551160712917" y="3" transform="rotate(180 102.76551160712917 0)" font-family="sans-serif">TRAVELS_TO</text></g><g class="relationship" transform="translate(170.61130122821524 115.30485816253201) rotate(332.74710614498497)"><path class="outline" fill="#A5ABB6" stroke="none" d="M 25 0.5 L 90.98159680514868 0.5 L 90.98159680514868 -0.5 L 25 -0.5 Z M 159.38784680514868 0.5 L 225.36944361029737 0.5 L 225.36944361029737 3.5 L 232.36944361029737 0 L 225.36944361029737 -3.5 L 225.36944361029737 -0.5 L 159.38784680514868 -0.5 Z"/><text text-anchor="middle" pointer-events="none" font-size="8px" fill="#000000" x="125.18472180514868" y="3" font-family="sans-serif">TRAVELS_FROM</text></g><g class="relationship" transform="translate(-148.41024135265994 -23.803266773478498) rotate(382.09338595957104)"><path class="outline" fill="#A5ABB6" stroke="none" d="M 25 0.5 L 30.08337614994828 0.5 L 30.08337614994828 -0.5 L 25 -0.5 Z M 98.48962614994828 0.5 L 103.57300229989656 0.5 L 103.57300229989656 3.5 L 110.57300229989656 0 L 103.57300229989656 -3.5 L 103.57300229989656 -0.5 L 98.48962614994828 -0.5 Z"/><text text-anchor="middle" pointer-events="none" font-size="8px" fill="#000000" x="64.28650114994828" y="3" font-family="sans-serif">TRAVELS_FROM</text></g><g class="relationship" transform="translate(-148.41024135265994 -23.803266773478498) rotate(432.3457275809221)"><path class="outline" fill="#A5ABB6" stroke="none" d="M 25 0.5 L 78.05461385929871 0.5 L 78.05461385929871 -0.5 L 25 -0.5 Z M 133.3163326092987 0.5 L 186.37094646859742 0.5 L 186.37094646859742 3.5 L 193.37094646859742 0 L 186.37094646859742 -3.5 L 186.37094646859742 -0.5 L 133.3163326092987 -0.5 Z"/><text text-anchor="middle" pointer-events="none" font-size="8px" fill="#000000" x="105.68547323429871" y="3" font-family="sans-serif">TRAVELS_TO</text></g><g class="relationship" transform="translate(-233.3385930245036 105.25288056947892) rotate(387.60262304303376)"><path class="outline" fill="#A5ABB6" stroke="none" d="M 25 0.5 L 47.58083701386636 0.5 L 47.58083701386636 -0.5 L 25 -0.5 Z M 115.98708701386636 0.5 L 138.56792402773272 0.5 L 138.56792402773272 3.5 L 145.56792402773272 0 L 138.56792402773272 -3.5 L 138.56792402773272 -0.5 L 115.98708701386636 -0.5 Z"/><text text-anchor="middle" pointer-events="none" font-size="8px" fill="#000000" x="81.78396201386636" y="3" font-family="sans-serif">TRAVELS_FROM</text></g><g class="relationship" transform="translate(-233.3385930245036 105.25288056947892) rotate(339.6566190675552)"><path class="outline" fill="#A5ABB6" stroke="none" d="M 25 0.5 L 81.14552264139536 0.5 L 81.14552264139536 -0.5 L 25 -0.5 Z M 136.40724139139536 0.5 L 192.55276403279072 0.5 L 192.55276403279072 3.5 L 199.55276403279072 0 L 192.55276403279072 -3.5 L 192.55276403279072 -0.5 L 136.40724139139536 -0.5 Z"/><text text-anchor="middle" pointer-events="none" font-size="8px" fill="#000000" x="108.77638201639536" y="3" font-family="sans-serif">TRAVELS_TO</text></g><g class="relationship" transform="translate(-82.1843061589775 184.28324352767777) rotate(374.1825130938988)"><path class="outline" fill="#A5ABB6" stroke="none" d="M 24.018736134675446,-6.953439040707552 L 24.277555179777966,-5.987513214418485 A 217.97000271120032 217.97000271120032 0 0 1 53.01070628880481,-11.649767020412582 L 52.88370882810213,-12.641670062536718 A 218.97000271120032 218.97000271120032 0 0 0 24.018736134675446,-6.953439040707552 Z M 103.88156548107355,-13.183313637706135 L 103.77566411535466,-12.188936998429597 A 217.97000271120032 217.97000271120032 0 0 1 132.62259653839988,-7.1382359977836005 L 131.90786167465737,-4.22462070496422 L 139.54015469893554,-5.956123864520961 L 133.57557635672325,-11.023056388209442 L 132.86084149298074,-8.10944109539006 A 218.97000271120032 218.97000271120032 0 0 0 103.88156548107355,-13.183313637706135"/><text text-anchor="middle" pointer-events="none" font-size="8px" fill="#000000" x="78.37212406911094" y="-10.902339880653187" font-family="sans-serif">CONNECTS</text></g><g class="relationship" transform="translate(399.4111960814354 -2.5494528295968735) rotate(504.88513877900573)"><path class="outline" fill="#A5ABB6" stroke="none" d="M 24.018736134675446,-6.953439040707552 L 24.277555179777966,-5.987513214418485 A 666.5194732892076 666.5194732892076 0 0 1 168.30451669341545,-28.089826819945415 L 168.26178580070084,-29.088913438216196 A 667.5194732892076 667.5194732892076 0 0 0 24.018736134675446,-6.953439040707552 Z M 219.28706439925836,-29.319250198552254 L 219.25335515705504,-28.319818516549844 A 666.5194732892076 666.5194732892076 0 0 1 363.4739900232157,-7.51870344140477 L 362.723726116888,-4.614034084857998 L 370.37659583954616,-6.252199219397833 L 364.4743418983194,-11.391595916800465 L 363.72407799199163,-8.486926560253695 A 667.5194732892076 667.5194732892076 0 0 0 219.28706439925836,-29.319250198552254"/><text text-anchor="middle" pointer-events="none" font-size="8px" fill="#000000" x="193.7744804633618" y="-26.191817462502968" transform="rotate(180 193.7744804633618 -29.191817462502968)" font-family="sans-serif">CONNECTS</text></g><g class="relationship" transform="translate(131.20323638344223 -25.741607926417146) rotate(462.30353839950357)"><path class="outline" fill="#A5ABB6" stroke="none" d="M 24.018736134675446,-6.953439040707552 L 24.277555179777966,-5.987513214418485 A 397.82613763662215 397.82613763662215 0 0 1 99.05567776040873,-18.543303272859816 L 98.98482555686385,-19.540790097460956 A 398.82613763662215 398.82613763662215 0 0 0 24.018736134675446,-6.953439040707552 Z M 150.01275886318862,-19.89256821441552 L 149.9556657580115,-18.89419935605639 A 397.82613763662215 397.82613763662215 0 0 1 224.89978786861462,-7.370569643743516 L 224.16335622883557,-4.46236256034448 L 231.80834300317554,-6.136930331492222 L 225.88169672165336,-11.248179088275563 L 225.1452650818743,-8.339972004876529 A 398.82613763662215 398.82613763662215 0 0 0 150.01275886318862,-19.89256821441552"/><text text-anchor="middle" pointer-events="none" font-size="8px" fill="#000000" x="124.496607098245" y="-17.033645257198657" transform="rotate(180 124.496607098245 -20.033645257198657)" font-family="sans-serif">CONNECTS</text></g><g class="relationship" transform="translate(-22.79208603395937 27.18808550251613) rotate(423.245083064926)"><path class="outline" fill="#A5ABB6" stroke="none" d="M 24.018736134675446,-6.953439040707552 L 24.277555179777966,-5.987513214418485 A 329.41717699090714 329.41717699090714 0 0 1 81.48796745857494,-16.015807704307917 L 81.40282002586795,-17.012176067265784 A 330.41717699090714 330.41717699090714 0 0 0 24.018736134675446,-6.953439040707552 Z M 132.42765481045714,-17.4182673995179 L 132.3583767521855,-16.42067001046655 A 329.41717699090714 329.41717699090714 0 0 1 189.72115622869123,-7.3042291361098854 L 188.99091960965205,-4.39446033426081 L 196.63232286951228,-6.085305158659945 L 190.69480505407682,-11.183920871908652 L 189.96456843503765,-8.274152070059577 A 330.41717699090714 330.41717699090714 0 0 0 132.42765481045714,-17.4182673995179"/><text text-anchor="middle" pointer-events="none" font-size="8px" fill="#000000" x="106.91136581750163" y="-14.701683197564648" font-family="sans-serif">CONNECTS</text></g><g class="relationship" transform="translate(76.64276221302673 224.42109589284598) rotate(365.74190300212507)"><path class="outline" fill="#A5ABB6" stroke="none" d="M 6.953439040707552 24.018736134675446 L 17.306200844808384 62.65576918623819 A 17.916697508022974 17.916697508022974 0 1 1 -17.306200844808384 62.65576918623819 L -8.765172356425198 30.780216918698923 L -4.901469051268926 31.815493099109005 L -6.4704761275630185 24.148145657226706 L -11.662949835292403 30.00375978339136 L -7.79924653013613 31.039035963801442 L -16.340275018519314 62.91458823134071 A 16.916697508022974 16.916697508022974 0 1 0 16.340275018519314 62.91458823134071 L 5.987513214418485 24.277555179777966 Z"/><text text-anchor="middle" pointer-events="none" font-size="8px" fill="#000000" x="0" y="94.20964923467838" font-family="sans-serif">CONNECTS</text></g><g class="relationship" transform="translate(-22.79208603395937 27.18808550251613) rotate(341.0316547781782)"><path class="outline" fill="#A5ABB6" stroke="none" d="M 24.018736134675446,6.953439040707552 L 24.277555179777966,5.987513214418485 A 216.04337927259394 216.04337927259394 0 0 0 52.52102633388725,11.569408079218107 L 52.39293784507025,12.561170822535559 A 217.04337927259394 217.04337927259394 0 0 1 24.018736134675446,6.953439040707552 Z M 103.38972554954333,13.105941067461913 L 103.28285276990152,12.111668363938549 A 216.04337927259394 216.04337927259394 0 0 0 131.63912160900156,7.134396958905629 L 130.92474528126985,4.220693737509095 L 138.55682518021544,5.953136064431033 L 132.59162337931053,11.01933458743434 L 131.87724705157882,8.105631366037807 A 217.04337927259394 217.04337927259394 0 0 1 103.38972554954333,13.105941067461913"/><text text-anchor="middle" pointer-events="none" font-size="8px" fill="#000000" x="77.88061611178394" y="16.836658528384845" font-family="sans-serif">CONNECTS</text></g><g class="relationship" transform="translate(399.4111960814354 -2.5494528295968735) rotate(184.9421182508159)"><path class="outline" fill="#A5ABB6" stroke="none" d="M 24.018736134675446,6.953439040707552 L 24.277555179777966,5.987513214418485 A 423.4069849913507 423.4069849913507 0 0 0 105.63476919889119,19.472707617779918 L 105.56809911897585,20.47048269285648 A 424.4069849913507 424.4069849913507 0 0 1 24.018736134675446,6.953439040707552 Z M 156.59636549999183,20.8054811035135 L 156.54280130435194,19.806916695502935 A 423.4069849913507 423.4069849913507 0 0 0 238.07005468146602,7.391051931738276 L 237.33171040527074,4.483329845669929 L 244.97779692832472,6.152868968293996 L 239.05451371639307,11.268014713162739 L 238.3161694401978,8.360292627094392 A 424.4069849913507 424.4069849913507 0 0 1 156.59636549999183,20.8054811035135"/><text text-anchor="middle" pointer-events="none" font-size="8px" fill="#000000" x="131.08047526515534" y="23.905621753138064" transform="rotate(180 131.08047526515534 20.905621753138064)" font-family="sans-serif">CONNECTS</text></g><g class="relationship" transform="translate(-82.1843061589775 184.28324352767777) rotate(315.4550267287989)"><path class="outline" fill="#A5ABB6" stroke="none" d="M 24.018736134675446,6.953439040707552 L 24.277555179777966,5.987513214418485 A 482.03460693595173 482.03460693595173 0 0 0 120.72763912095746,21.580420168527496 L 120.66890961829311,22.578694101632436 A 483.03460693595173 483.03460693595173 0 0 1 24.018736134675446,6.953439040707552 Z M 171.69710299175597,22.880650110429087 L 171.65019163009976,21.8817510543941 A 482.03460693595173 482.03460693595173 0 0 0 268.2780547685647,7.431370269301839 L 267.535945626195,4.52460677345095 L 275.18418778261173,6.184242853080975 L 269.26753362505764,11.307054930436358 L 268.5254244826879,8.40029143458547 A 483.03460693595173 483.03460693595173 0 0 1 171.69710299175597,22.880650110429087"/><text text-anchor="middle" pointer-events="none" font-size="8px" fill="#000000" x="146.18197475389428" y="25.90399614336019" font-family="sans-serif">CONNECTS</text></g><g class="relationship" transform="translate(76.64276221302673 224.42109589284598) rotate(282.30353839950357)"><path class="outline" fill="#A5ABB6" stroke="none" d="M 24.018736134675446,-6.953439040707552 L 24.277555179777966,-5.987513214418485 A 397.82613763662215 397.82613763662215 0 0 1 99.05567776040873,-18.543303272859816 L 98.98482555686385,-19.540790097460956 A 398.82613763662215 398.82613763662215 0 0 0 24.018736134675446,-6.953439040707552 Z M 150.01275886318862,-19.89256821441552 L 149.9556657580115,-18.89419935605639 A 397.82613763662215 397.82613763662215 0 0 1 224.89978786861462,-7.370569643743516 L 224.16335622883557,-4.46236256034448 L 231.80834300317554,-6.136930331492222 L 225.88169672165336,-11.248179088275563 L 225.1452650818743,-8.339972004876529 A 398.82613763662215 398.82613763662215 0 0 0 150.01275886318862,-19.89256821441552"/><text text-anchor="middle" pointer-events="none" font-size="8px" fill="#000000" x="124.496607098245" y="-17.033645257198657" font-family="sans-serif">CONNECTS</text></g><g class="relationship" transform="translate(131.20323638344223 -25.741607926417146) rotate(532.986886514497)"><path class="outline" fill="#A5ABB6" stroke="none" d="M 6.953439040707552 24.018736134675446 L 17.306200844808384 62.65576918623819 A 17.916697508022974 17.916697508022974 0 1 1 -17.306200844808384 62.65576918623819 L -8.765172356425198 30.780216918698923 L -4.901469051268926 31.815493099109005 L -6.4704761275630185 24.148145657226706 L -11.662949835292403 30.00375978339136 L -7.79924653013613 31.039035963801442 L -16.340275018519314 62.91458823134071 A 16.916697508022974 16.916697508022974 0 1 0 16.340275018519314 62.91458823134071 L 5.987513214418485 24.277555179777966 Z"/><text text-anchor="middle" pointer-events="none" font-size="8px" fill="#000000" x="0" y="94.20964923467838" transform="rotate(180 0 91.20964923467838)" font-family="sans-serif">CONNECTS</text></g><g class="relationship" transform="translate(76.64276221302673 224.42109589284598) rotate(324.88513877900573)"><path class="outline" fill="#A5ABB6" stroke="none" d="M 24.018736134675446,-6.953439040707552 L 24.277555179777966,-5.987513214418485 A 666.5194732892076 666.5194732892076 0 0 1 168.30451669341545,-28.089826819945415 L 168.26178580070084,-29.088913438216196 A 667.5194732892076 667.5194732892076 0 0 0 24.018736134675446,-6.953439040707552 Z M 219.28706439925836,-29.319250198552254 L 219.25335515705504,-28.319818516549844 A 666.5194732892076 666.5194732892076 0 0 1 363.4739900232157,-7.51870344140477 L 362.723726116888,-4.614034084857998 L 370.37659583954616,-6.252199219397833 L 364.4743418983194,-11.391595916800465 L 363.72407799199163,-8.486926560253695 A 667.5194732892076 667.5194732892076 0 0 0 219.28706439925836,-29.319250198552254"/><text text-anchor="middle" pointer-events="none" font-size="8px" fill="#000000" x="193.7744804633618" y="-26.191817462502968" font-family="sans-serif">CONNECTS</text></g><g class="relationship" transform="translate(-22.79208603395937 27.18808550251613) rotate(355.97107292046144)"><path class="outline" fill="#A5ABB6" stroke="none" d="M 24.018736134675446,-6.953439040707552 L 24.277555179777966,-5.987513214418485 A 722.0323343523519 722.0323343523519 0 0 1 182.63627096052898,-30.026802444819737 L 182.5967754945052,-31.02602219450614 A 723.0323343523519 723.0323343523519 0 0 0 24.018736134675446,-6.953439040707552 Z M 233.62102120722489,-31.240998979926076 L 233.58994687534545,-30.2414819035846 A 722.0323343523519 722.0323343523519 0 0 1 392.14560303427544,-7.537425207859243 L 391.39359102622615,-4.633207939859195 L 399.04744532761714,-6.266766733744224 L 393.14828571167453,-11.409714898525975 L 392.39627370362524,-8.505497630525927 A 723.0323343523519 723.0323343523519 0 0 0 233.62102120722489,-31.240998979926076"/><text text-anchor="middle" pointer-events="none" font-size="8px" fill="#000000" x="208.10910798020842" y="-28.083755544580868" font-family="sans-serif">CONNECTS</text></g><g class="relationship" transform="translate(131.20323638344223 -25.741607926417146) rotate(364.9421182508159)"><path class="outline" fill="#A5ABB6" stroke="none" d="M 24.018736134675446,6.953439040707552 L 24.277555179777966,5.987513214418485 A 423.4069849913507 423.4069849913507 0 0 0 105.63476919889119,19.472707617779918 L 105.56809911897585,20.47048269285648 A 424.4069849913507 424.4069849913507 0 0 1 24.018736134675446,6.953439040707552 Z M 156.59636549999183,20.8054811035135 L 156.54280130435194,19.806916695502935 A 423.4069849913507 423.4069849913507 0 0 0 238.07005468146602,7.391051931738276 L 237.33171040527074,4.483329845669929 L 244.97779692832472,6.152868968293996 L 239.05451371639307,11.268014713162739 L 238.3161694401978,8.360292627094392 A 424.4069849913507 424.4069849913507 0 0 1 156.59636549999183,20.8054811035135"/><text text-anchor="middle" pointer-events="none" font-size="8px" fill="#000000" x="131.08047526515534" y="23.905621753138064" font-family="sans-serif">CONNECTS</text></g><g class="relationship" transform="translate(-82.1843061589775 184.28324352767777) rotate(338.7964724958)"><path class="outline" fill="#A5ABB6" stroke="none" d="M 24.018736134675446,-6.953439040707552 L 24.277555179777966,-5.987513214418485 A 902.6359034626546 902.6359034626546 0 0 1 229.29095987576687,-36.29068791354507 L 229.25926829580234,-37.29018560927 A 903.6359034626546 903.6359034626546 0 0 0 24.018736134675446,-6.953439040707552 Z M 280.2804177153358,-37.4668181702292 L 280.25564722996626,-36.46712500577598 A 902.6359034626546 902.6359034626546 0 0 1 485.47395128864844,-7.584151108246354 L 484.7175764337604,-4.681067044893522 L 492.373876578953,-6.303123790733208 L 486.48245109516574,-11.454929859383464 L 485.72607624027773,-8.551845796030632 A 903.6359034626546 903.6359034626546 0 0 0 280.2804177153358,-37.4668181702292"/><text text-anchor="middle" pointer-events="none" font-size="8px" fill="#000000" x="254.7703270832831" y="-34.23867375588429" font-family="sans-serif">CONNECTS</text></g><g class="relationship" transform="translate(399.4111960814354 -2.5494528295968735) rotate(234.47914337655337)"><path class="outline" fill="#A5ABB6" stroke="none" d="M 6.953439040707552 24.018736134675446 L 17.306200844808384 62.65576918623819 A 17.916697508022974 17.916697508022974 0 1 1 -17.306200844808384 62.65576918623819 L -8.765172356425198 30.780216918698923 L -4.901469051268926 31.815493099109005 L -6.4704761275630185 24.148145657226706 L -11.662949835292403 30.00375978339136 L -7.79924653013613 31.039035963801442 L -16.340275018519314 62.91458823134071 A 16.916697508022974 16.916697508022974 0 1 0 16.340275018519314 62.91458823134071 L 5.987513214418485 24.277555179777966 Z"/><text text-anchor="middle" pointer-events="none" font-size="8px" fill="#000000" x="0" y="94.20964923467838" transform="rotate(180 0 91.20964923467838)" font-family="sans-serif">CONNECTS</text></g><g class="relationship" transform="translate(399.4111960814354 -2.5494528295968735) rotate(535.9710729204614)"><path class="outline" fill="#A5ABB6" stroke="none" d="M 24.018736134675446,-6.953439040707552 L 24.277555179777966,-5.987513214418485 A 722.0323343523519 722.0323343523519 0 0 1 182.63627096052898,-30.026802444819737 L 182.5967754945052,-31.02602219450614 A 723.0323343523519 723.0323343523519 0 0 0 24.018736134675446,-6.953439040707552 Z M 233.62102120722489,-31.240998979926076 L 233.58994687534545,-30.2414819035846 A 722.0323343523519 722.0323343523519 0 0 1 392.14560303427544,-7.537425207859243 L 391.39359102622615,-4.633207939859195 L 399.04744532761714,-6.266766733744224 L 393.14828571167453,-11.409714898525975 L 392.39627370362524,-8.505497630525927 A 723.0323343523519 723.0323343523519 0 0 0 233.62102120722489,-31.240998979926076"/><text text-anchor="middle" pointer-events="none" font-size="8px" fill="#000000" x="208.10910798020842" y="-28.083755544580868" transform="rotate(180 208.10910798020842 -31.083755544580868)" font-family="sans-serif">CONNECTS</text></g><g class="relationship" transform="translate(-82.1843061589775 184.28324352767777) rotate(290.7098631988952)"><path class="outline" fill="#A5ABB6" stroke="none" d="M 24.018736134675446,6.953439040707552 L 24.277555179777966,5.987513214418485 A 226.05858009537914 226.05858009537914 0 0 0 55.06787826077982,11.984533489100073 L 54.94526427840047,12.976987927008963 A 227.05858009537914 227.05858009537914 0 0 1 24.018736134675446,6.953439040707552 Z M 105.9472256160295,13.5058789569174 L 105.84521932061003,12.511095203685159 A 226.05858009537914 226.05858009537914 0 0 0 136.75328589368044,7.153888065439903 L 136.03708925756584,4.2406317467445955 L 143.67025007665526,5.968305300955045 L 137.70821474183325,11.038229823700311 L 136.99201810571864,8.124973505005004 A 227.05858009537914 227.05858009537914 0 0 1 105.9472256160295,13.5058789569174"/><text text-anchor="middle" pointer-events="none" font-size="8px" fill="#000000" x="80.43653178747584" y="17.178091788329624" font-family="sans-serif">CONNECTS</text></g><g class="relationship" transform="translate(131.20323638344223 -25.741607926417146) rotate(521.0316547781782)"><path class="outline" fill="#A5ABB6" stroke="none" d="M 24.018736134675446,6.953439040707552 L 24.277555179777966,5.987513214418485 A 216.04337927259394 216.04337927259394 0 0 0 52.52102633388725,11.569408079218107 L 52.39293784507025,12.561170822535559 A 217.04337927259394 217.04337927259394 0 0 1 24.018736134675446,6.953439040707552 Z M 103.38972554954333,13.105941067461913 L 103.28285276990152,12.111668363938549 A 216.04337927259394 216.04337927259394 0 0 0 131.63912160900156,7.134396958905629 L 130.92474528126985,4.220693737509095 L 138.55682518021544,5.953136064431033 L 132.59162337931053,11.01933458743434 L 131.87724705157882,8.105631366037807 A 217.04337927259394 217.04337927259394 0 0 1 103.38972554954333,13.105941067461913"/><text text-anchor="middle" pointer-events="none" font-size="8px" fill="#000000" x="77.88061611178394" y="16.836658528384845" transform="rotate(180 77.88061611178394 13.836658528384845)" font-family="sans-serif">CONNECTS</text></g><g class="relationship" transform="translate(76.64276221302673 224.42109589284598) rotate(243.245083064926)"><path class="outline" fill="#A5ABB6" stroke="none" d="M 24.018736134675446,-6.953439040707552 L 24.277555179777966,-5.987513214418485 A 329.41717699090714 329.41717699090714 0 0 1 81.48796745857494,-16.015807704307917 L 81.40282002586795,-17.012176067265784 A 330.41717699090714 330.41717699090714 0 0 0 24.018736134675446,-6.953439040707552 Z M 132.42765481045714,-17.4182673995179 L 132.3583767521855,-16.42067001046655 A 329.41717699090714 329.41717699090714 0 0 1 189.72115622869123,-7.3042291361098854 L 188.99091960965205,-4.39446033426081 L 196.63232286951228,-6.085305158659945 L 190.69480505407682,-11.183920871908652 L 189.96456843503765,-8.274152070059577 A 330.41717699090714 330.41717699090714 0 0 0 132.42765481045714,-17.4182673995179"/><text text-anchor="middle" pointer-events="none" font-size="8px" fill="#000000" x="106.91136581750163" y="-14.701683197564648" transform="rotate(180 106.91136581750163 -17.70168319756465)" font-family="sans-serif">CONNECTS</text></g><g class="relationship" transform="translate(-22.79208603395937 27.18808550251613) rotate(181.56252036887463)"><path class="outline" fill="#A5ABB6" stroke="none" d="M 6.953439040707552 24.018736134675446 L 17.306200844808384 62.65576918623819 A 17.916697508022974 17.916697508022974 0 1 1 -17.306200844808384 62.65576918623819 L -8.765172356425198 30.780216918698923 L -4.901469051268926 31.815493099109005 L -6.4704761275630185 24.148145657226706 L -11.662949835292403 30.00375978339136 L -7.79924653013613 31.039035963801442 L -16.340275018519314 62.91458823134071 A 16.916697508022974 16.916697508022974 0 1 0 16.340275018519314 62.91458823134071 L 5.987513214418485 24.277555179777966 Z"/><text text-anchor="middle" pointer-events="none" font-size="8px" fill="#000000" x="0" y="94.20964923467838" transform="rotate(180 0 91.20964923467838)" font-family="sans-serif">CONNECTS</text></g><g class="relationship" transform="translate(-22.79208603395937 27.18808550251613) rotate(470.7098631988952)"><path class="outline" fill="#A5ABB6" stroke="none" d="M 24.018736134675446,6.953439040707552 L 24.277555179777966,5.987513214418485 A 226.05858009537914 226.05858009537914 0 0 0 55.06787826077982,11.984533489100073 L 54.94526427840047,12.976987927008963 A 227.05858009537914 227.05858009537914 0 0 1 24.018736134675446,6.953439040707552 Z M 105.9472256160295,13.5058789569174 L 105.84521932061003,12.511095203685159 A 226.05858009537914 226.05858009537914 0 0 0 136.75328589368044,7.153888065439903 L 136.03708925756584,4.2406317467445955 L 143.67025007665526,5.968305300955045 L 137.70821474183325,11.038229823700311 L 136.99201810571864,8.124973505005004 A 227.05858009537914 227.05858009537914 0 0 1 105.9472256160295,13.5058789569174"/><text text-anchor="middle" pointer-events="none" font-size="8px" fill="#000000" x="80.43653178747584" y="17.178091788329624" transform="rotate(180 80.43653178747584 14.178091788329624)" font-family="sans-serif">CONNECTS</text></g><g class="relationship" transform="translate(399.4111960814354 -2.5494528295968735) rotate(518.7964724958)"><path class="outline" fill="#A5ABB6" stroke="none" d="M 24.018736134675446,-6.953439040707552 L 24.277555179777966,-5.987513214418485 A 902.6359034626546 902.6359034626546 0 0 1 229.29095987576687,-36.29068791354507 L 229.25926829580234,-37.29018560927 A 903.6359034626546 903.6359034626546 0 0 0 24.018736134675446,-6.953439040707552 Z M 280.2804177153358,-37.4668181702292 L 280.25564722996626,-36.46712500577598 A 902.6359034626546 902.6359034626546 0 0 1 485.47395128864844,-7.584151108246354 L 484.7175764337604,-4.681067044893522 L 492.373876578953,-6.303123790733208 L 486.48245109516574,-11.454929859383464 L 485.72607624027773,-8.551845796030632 A 903.6359034626546 903.6359034626546 0 0 0 280.2804177153358,-37.4668181702292"/><text text-anchor="middle" pointer-events="none" font-size="8px" fill="#000000" x="254.7703270832831" y="-34.23867375588429" transform="rotate(180 254.7703270832831 -37.23867375588429)" font-family="sans-serif">CONNECTS</text></g><g class="relationship" transform="translate(76.64276221302673 224.42109589284598) rotate(194.18251309389882)"><path class="outline" fill="#A5ABB6" stroke="none" d="M 24.018736134675446,-6.953439040707552 L 24.277555179777966,-5.987513214418485 A 217.97000271120032 217.97000271120032 0 0 1 53.01070628880481,-11.649767020412582 L 52.88370882810213,-12.641670062536718 A 218.97000271120032 218.97000271120032 0 0 0 24.018736134675446,-6.953439040707552 Z M 103.88156548107355,-13.183313637706135 L 103.77566411535466,-12.188936998429597 A 217.97000271120032 217.97000271120032 0 0 1 132.62259653839988,-7.1382359977836005 L 131.90786167465737,-4.22462070496422 L 139.54015469893554,-5.956123864520961 L 133.57557635672325,-11.023056388209442 L 132.86084149298074,-8.10944109539006 A 218.97000271120032 218.97000271120032 0 0 0 103.88156548107355,-13.183313637706135"/><text text-anchor="middle" pointer-events="none" font-size="8px" fill="#000000" x="78.37212406911094" y="-10.902339880653187" transform="rotate(180 78.37212406911094 -13.902339880653187)" font-family="sans-serif">CONNECTS</text></g><g class="relationship" transform="translate(131.20323638344223 -25.741607926417146) rotate(495.4550267287989)"><path class="outline" fill="#A5ABB6" stroke="none" d="M 24.018736134675446,6.953439040707552 L 24.277555179777966,5.987513214418485 A 482.03460693595173 482.03460693595173 0 0 0 120.72763912095746,21.580420168527496 L 120.66890961829311,22.578694101632436 A 483.03460693595173 483.03460693595173 0 0 1 24.018736134675446,6.953439040707552 Z M 171.69710299175597,22.880650110429087 L 171.65019163009976,21.8817510543941 A 482.03460693595173 482.03460693595173 0 0 0 268.2780547685647,7.431370269301839 L 267.535945626195,4.52460677345095 L 275.18418778261173,6.184242853080975 L 269.26753362505764,11.307054930436358 L 268.5254244826879,8.40029143458547 A 483.03460693595173 483.03460693595173 0 0 1 171.69710299175597,22.880650110429087"/><text text-anchor="middle" pointer-events="none" font-size="8px" fill="#000000" x="146.18197475389428" y="25.90399614336019" transform="rotate(180 146.18197475389428 22.90399614336019)" font-family="sans-serif">CONNECTS</text></g><g class="relationship" transform="translate(-82.1843061589775 184.28324352767777) rotate(380.8925680684663)"><path class="outline" fill="#A5ABB6" stroke="none" d="M 6.953439040707552 24.018736134675446 L 17.306200844808384 62.65576918623819 A 17.916697508022974 17.916697508022974 0 1 1 -17.306200844808384 62.65576918623819 L -8.765172356425198 30.780216918698923 L -4.901469051268926 31.815493099109005 L -6.4704761275630185 24.148145657226706 L -11.662949835292403 30.00375978339136 L -7.79924653013613 31.039035963801442 L -16.340275018519314 62.91458823134071 A 16.916697508022974 16.916697508022974 0 1 0 16.340275018519314 62.91458823134071 L 5.987513214418485 24.277555179777966 Z"/><text text-anchor="middle" pointer-events="none" font-size="8px" fill="#000000" x="0" y="94.20964923467838" font-family="sans-serif">CONNECTS</text></g></g><g class="layer nodes"><g class="node" transform="translate(271.2214922239724,11.142628969952113)"><circle class="outline" cx="0" cy="0" r="25" fill="#DE9BF9" stroke="#BF85D6" stroke-width="2px"/><text text-anchor="middle" pointer-events="none" font-family="sans-serif" dy="1.5625" font-size="25" fill="#FFFFFF"/><text class="caption" text-anchor="middle" pointer-events="none" y="5" font-size="10px" fill="#FFFFFF" font-family="sans-serif"> 134</text></g><g class="node" transform="translate(76.64276221302673,224.42109589284598)"><circle class="outline" cx="0" cy="0" r="25" fill="#FF756E" stroke="#E06760" stroke-width="2px"/><text text-anchor="middle" pointer-events="none" font-family="sans-serif" dy="1.5625" font-size="25" fill="#FFFFFF"/><text text-anchor="middle" pointer-events="none" font-family="sans-serif" dy="1.5625" font-size="25" fill="#FFFFFF"/><text text-anchor="middle" pointer-events="none" font-family="sans-serif" dy="1.5625" font-size="25" fill="#FFFFFF"/><text class="caption" text-anchor="middle" pointer-events="none" y="-5" font-size="10px" fill="#FFFFFF" font-family="sans-serif"> Central</text><text class="caption" text-anchor="middle" pointer-events="none" y="5" font-size="10px" fill="#FFFFFF" font-family="sans-serif"> Sq Post</text><text class="caption" text-anchor="middle" pointer-events="none" y="15" font-size="10px" fill="#FFFFFF" font-family="sans-serif"> Office /</text></g><g class="node" transform="translate(131.20323638344223,-25.741607926417146)"><circle class="outline" cx="0" cy="0" r="25" fill="#FF756E" stroke="#E06760" stroke-width="2px"/><text text-anchor="middle" pointer-events="none" font-family="sans-serif" dy="1.5625" font-size="25" fill="#FFFFFF"/><text text-anchor="middle" pointer-events="none" font-family="sans-serif" dy="1.5625" font-size="25" fill="#FFFFFF"/><text text-anchor="middle" pointer-events="none" font-family="sans-serif" dy="1.5625" font-size="25" fill="#FFFFFF"/><text class="caption" text-anchor="middle" pointer-events="none" y="-5" font-size="10px" fill="#FFFFFF" font-family="sans-serif"> Binney</text><text class="caption" text-anchor="middle" pointer-events="none" y="5" font-size="10px" fill="#FFFFFF" font-family="sans-serif"> St / Sixth</text><text class="caption" text-anchor="middle" pointer-events="none" y="15" font-size="10px" fill="#FFFFFF" font-family="sans-serif"> St</text></g><g class="node" transform="translate(345.92151509443386,211.72832219497113)"><circle class="outline" cx="0" cy="0" r="25" fill="#DE9BF9" stroke="#BF85D6" stroke-width="2px"/><text text-anchor="middle" pointer-events="none" font-family="sans-serif" dy="1.5625" font-size="25" fill="#FFFFFF"/><text class="caption" text-anchor="middle" pointer-events="none" y="5" font-size="10px" fill="#FFFFFF" font-family="sans-serif"> 134</text></g><g class="node" transform="translate(399.4111960814354,-2.5494528295968735)"><circle class="outline" cx="0" cy="0" r="25" fill="#FF756E" stroke="#E06760" stroke-width="2px"/><text text-anchor="middle" pointer-events="none" font-family="sans-serif" dy="1.5625" font-size="25" fill="#FFFFFF"/><text text-anchor="middle" pointer-events="none" font-family="sans-serif" dy="1.5625" font-size="25" fill="#FFFFFF"/><text text-anchor="middle" pointer-events="none" font-family="sans-serif" dy="1.5625" font-size="25" fill="#FFFFFF"/><text class="caption" text-anchor="middle" pointer-events="none" y="-5" font-size="10px" fill="#FFFFFF" font-family="sans-serif"> Ames</text><text class="caption" text-anchor="middle" pointer-events="none" y="5" font-size="10px" fill="#FFFFFF" font-family="sans-serif"> St at</text><text class="caption" text-anchor="middle" pointer-events="none" y="15" font-size="10px" fill="#FFFFFF" font-family="sans-serif"> Main</text></g><g class="node" transform="translate(170.61130122821524,115.30485816253201)"><circle class="outline" cx="0" cy="0" r="25" fill="#DE9BF9" stroke="#BF85D6" stroke-width="2px"/><text text-anchor="middle" pointer-events="none" font-family="sans-serif" dy="1.5625" font-size="25" fill="#FFFFFF"/><text class="caption" text-anchor="middle" pointer-events="none" y="5" font-size="10px" fill="#FFFFFF" font-family="sans-serif"> 134</text></g><g class="node" transform="translate(-22.79208603395937,27.18808550251613)"><circle class="outline" cx="0" cy="0" r="25" fill="#FF756E" stroke="#E06760" stroke-width="2px"/><text text-anchor="middle" pointer-events="none" font-family="sans-serif" dy="1.5625" font-size="25" fill="#FFFFFF"/><text text-anchor="middle" pointer-events="none" font-family="sans-serif" dy="1.5625" font-size="25" fill="#FFFFFF"/><text text-anchor="middle" pointer-events="none" font-family="sans-serif" dy="1.5625" font-size="25" fill="#FFFFFF"/><text text-anchor="middle" pointer-events="none" font-family="sans-serif" dy="1.5625" font-size="25" fill="#FFFFFF"/><text class="caption" text-anchor="middle" pointer-events="none" y="-10" font-size="10px" fill="#FFFFFF" font-family="sans-serif"> MIT</text><text class="caption" text-anchor="middle" pointer-events="none" y="0" font-size="10px" fill="#FFFFFF" font-family="sans-serif"> at Mass</text><text class="caption" text-anchor="middle" pointer-events="none" y="10" font-size="10px" fill="#FFFFFF" font-family="sans-serif"> Ave /</text><text class="caption" text-anchor="middle" pointer-events="none" y="20" font-size="10px" fill="#FFFFFF" font-family="sans-serif"> Am…</text></g><g class="node" transform="translate(-148.41024135265994,-23.803266773478498)"><circle class="outline" cx="0" cy="0" r="25" fill="#DE9BF9" stroke="#BF85D6" stroke-width="2px"/><text text-anchor="middle" pointer-events="none" font-family="sans-serif" dy="1.5625" font-size="25" fill="#FFFFFF"/><text class="caption" text-anchor="middle" pointer-events="none" y="5" font-size="10px" fill="#FFFFFF" font-family="sans-serif"> 134</text></g><g class="node" transform="translate(-82.1843061589775,184.28324352767777)"><circle class="outline" cx="0" cy="0" r="25" fill="#FF756E" stroke="#E06760" stroke-width="2px"/><text text-anchor="middle" pointer-events="none" font-family="sans-serif" dy="1.5625" font-size="25" fill="#FFFFFF"/><text class="caption" text-anchor="middle" pointer-events="none" y="5" font-size="10px" fill="#FFFFFF" font-family="sans-serif"> Lafayette</text></g><g class="node" transform="translate(-233.3385930245036,105.25288056947892)"><circle class="outline" cx="0" cy="0" r="25" fill="#DE9BF9" stroke="#BF85D6" stroke-width="2px"/><text text-anchor="middle" pointer-events="none" font-family="sans-serif" dy="1.5625" font-size="25" fill="#FFFFFF"/><text class="caption" text-anchor="middle" pointer-events="none" y="5" font-size="10px" fill="#FFFFFF" font-family="sans-serif"> 134</text></g></g></svg>