<svg xmlns="http://www.w3.org/2000/svg" width="802.10595703125" height="470.9263000488281" viewBox="-305.7308349609375 -128.16531372070312 802.10595703125 470.9263000488281"><title>Neo4j Graph Visualization</title><desc>Created using Neo4j (http://www.neo4j.com/)</desc><g class="layer relationships"><g class="relationship" transform="translate(270.2214922239724 -75.85737103004789) rotate(483.0679890324524)"><path class="outline" fill="#A5ABB6" stroke="none" d="M 25 0.5 L 158.1707500118968 0.5 L 158.1707500118968 -0.5 L 25 -0.5 Z M 213.4324687618968 0.5 L 346.6032187737936 0.5 L 346.6032187737936 3.5 L 353.6032187737936 0 L 346.6032187737936 -3.5 L 346.6032187737936 -0.5 L 213.4324687618968 -0.5 Z"/><text text-anchor="middle" pointer-events="none" font-size="8px" fill="#000000" x="185.8016093868968" y="3" transform="rotate(180 185.8016093868968 0)" font-family="sans-serif">TRAVELS_TO</text></g><g class="relationship" transform="translate(270.2214922239724 -75.85737103004789) rotate(520.1758826303458)"><path class="outline" fill="#A5ABB6" stroke="none" d="M 25 0.5 L 36.18473795529587 0.5 L 36.18473795529587 -0.5 L 25 -0.5 Z M 104.59098795529587 0.5 L 115.77572591059175 0.5 L 115.77572591059175 3.5 L 122.77572591059175 0 L 115.77572591059175 -3.5 L 115.77572591059175 -0.5 L 104.59098795529587 -0.5 Z"/><text text-anchor="middle" pointer-events="none" font-size="8px" fill="#000000" x="70.38786295529587" y="3" transform="rotate(180 70.38786295529587 0)" font-family="sans-serif">TRAVELS_FROM</text></g><g class="relationship" transform="translate(345.92151509443386 211.72832219497113) rotate(533.9951655372821)"><path class="outline" fill="#A5ABB6" stroke="none" d="M 25 0.5 L 104.21494567649606 0.5 L 104.21494567649606 -0.5 L 25 -0.5 Z M 172.62119567649606 0.5 L 251.83614135299212 0.5 L 251.83614135299212 3.5 L 258.8361413529921 0 L 251.83614135299212 -3.5 L 251.83614135299212 -0.5 L 172.62119567649606 -0.5 Z"/><text text-anchor="middle" pointer-events="none" font-size="8px" fill="#000000" x="138.41807067649606" y="3" transform="rotate(180 138.41807067649606 0)" font-family="sans-serif">TRAVELS_FROM</text></g><g class="relationship" transform="translate(345.92151509443386 211.72832219497113) rotate(284.01616850229084)"><path class="outline" fill="#A5ABB6" stroke="none" d="M 25 0.5 L 79.2957122026445 0.5 L 79.2957122026445 -0.5 L 25 -0.5 Z M 134.5574309526445 0.5 L 188.853143155289 0.5 L 188.853143155289 3.5 L 195.853143155289 0 L 188.853143155289 -3.5 L 188.853143155289 -0.5 L 134.5574309526445 -0.5 Z"/><text text-anchor="middle" pointer-events="none" font-size="8px" fill="#000000" x="106.9265715776445" y="3" font-family="sans-serif">TRAVELS_TO</text></g><g class="relationship" transform="translate(170.61130122821524 115.30485816253201) rotate(204.49454694721612)"><path class="outline" fill="#A5ABB6" stroke="none" d="M 25 0.5 L 75.13465223212917 0.5 L 75.13465223212917 -0.5 L 25 -0.5 Z M 130.39637098212916 0.5 L 180.53102321425834 0.5 L 180.53102321425834 3.5 L 187.53102321425834 0 L 180.53102321425834 -3.5 L 180.53102321425834 -0.5 L 130.39637098212916 -0.5 Z"/><text text-anchor="middle" pointer-events="none" font-size="8px" fill="#000000" x="102.76551160712917" y="3" transform="rotate(180 102.76551160712917 0)" font-family="sans-serif">TRAVELS_TO</text></g><g class="relationship" transform="translate(170.61130122821524 115.30485816253201) rotate(332.74710614498497)"><path class="outline" fill="#A5ABB6" stroke="none" d="M 25 0.5 L 90.98159680514868 0.5 L 90.98159680514868 -0.5 L 25 -0.5 Z M 159.38784680514868 0.5 L 225.36944361029737 0.5 L 225.36944361029737 3.5 L 232.36944361029737 0 L 225.36944361029737 -3.5 L 225.36944361029737 -0.5 L 159.38784680514868 -0.5 Z"/><text text-anchor="middle" pointer-events="none" font-size="8px" fill="#000000" x="125.18472180514868" y="3" font-family="sans-serif">TRAVELS_FROM</text></g><g class="relationship" transform="translate(-148.41024135265994 -23.803266773478498) rotate(382.09338595957104)"><path class="outline" fill="#A5ABB6" stroke="none" d="M 25 0.5 L 30.08337614994828 0.5 L 30.08337614994828 -0.5 L 25 -0.5 Z M 98.48962614994828 0.5 L 103.57300229989656 0.5 L 103.57300229989656 3.5 L 110.57300229989656 0 L 103.57300229989656 -3.5 L 103.57300229989656 -0.5 L 98.48962614994828 -0.5 Z"/><text text-anchor="middle" pointer-events="none" font-size="8px" fill="#000000" x="64.28650114994828" y="3" font-family="sans-serif">TRAVELS_FROM</text></g><g class="relationship" transform="translate(-148.41024135265994 -23.803266773478498) rotate(432.3457275809221)"><path class="outline" fill="#A5ABB6" stroke="none" d="M 25 0.5 L 78.05461385929871 0.5 L 78.05461385929871 -0.5 L 25 -0.5 Z M 133.3163326092987 0.5 L 186.37094646859742 0.5 L 186.37094646859742 3.5 L 193.37094646859742 0 L 186.37094646859742 -3.5 L 186.37094646859742 -0.5 L 133.3163326092987 -0.5 Z"/><text text-anchor="middle" pointer-events="none" font-size="8px" fill="#000000" x="105.68547323429871" y="3" font-family="sans-serif">TRAVELS_TO</text></g><g class="relationship" transform="translate(-233.3385930245036 105.25288056947892) rotate(387.60262304303376)"><path class="outline" fill="#A5ABB6" stroke="none" d="M 25 0.5 L 47.58083701386636 0.5 L 47.58083701386636 -0.5 L 25 -0.5 Z M 115.98708701386636 0.5 L 138.56792402773272 0.5 L 138.56792402773272 3.5 L 145.56792402773272 0 L 138.56792402773272 -3.5 L 138.56792402773272 -0.5 L 115.98708701386636 -0.5 Z"/><text text-anchor="middle" pointer-events="none" font-size="8px" fill="#000000" x="81.78396201386636" y="3" font-family="sans-serif">TRAVELS_FROM</text></g><g class="relationship" transform="translate(-233.3385930245036 105.25288056947892) rotate(339.6566190675552)"><path class="outline" fill="#A5ABB6" stroke="none" d="M 25 0.5 L 81.14552264139536 0.5 L 81.14552264139536 -0.5 L 25 -0.5 Z M 136.40724139139536 0.5 L 192.55276403279072 0.5 L 192.55276403279072 3.5 L 199.55276403279072 0 L 192.55276403279072 -3.5 L 192.55276403279072 -0.5 L 136.40724139139536 -0.5 Z"/><text text-anchor="middle" pointer-events="none" font-size="8px" fill="#000000" x="108.77638201639536" y="3" font-family="sans-serif">TRAVELS_TO</text></g><g class="relationship" transform="translate(-82.1843061589775 184.28324352767777) rotate(381.3962020117408)"><path class="outline" fill="#A5ABB6" stroke="none" d="M 24.018736134675446,-6.953439040707552 L 24.277555179777966,-5.987513214418485 A 203.84659400220875 203.84659400220875 0 0 1 49.42414200858764,-11.054562214712007 L 49.28868331175043,-12.045345208838938 A 204.84659400220875 204.84659400220875 0 0 0 24.018736134675446,-6.953439040707552 Z M 100.27775355443161,-12.610756882560963 L 100.16429881196541,-11.617213717211854 A 203.84659400220875 203.84659400220875 0 0 1 125.41706416745468,-7.109037077944008 L 124.70505627126046,-4.194754189177534 L 132.3357255572755,-5.933399134951891 L 126.36640802904698,-10.994747596299309 L 125.65440013285276,-8.080464707532833 A 204.84659400220875 204.84659400220875 0 0 0 100.27775355443161,-12.610756882560963"/><text text-anchor="middle" pointer-events="none" font-size="8px" fill="#000000" x="74.77110046060692" y="-10.42085506604002" font-family="sans-serif">CONNECTS</text></g><g class="relationship" transform="translate(399.4111960814354 -2.5494528295968735) rotate(503.99771028869407)"><path class="outline" fill="#A5ABB6" stroke="none" d="M 24.018736134675446,-6.953439040707552 L 24.277555179777966,-5.987513214418485 A 706.1462714332396 706.1462714332396 0 0 1 178.5344440543994,-29.473209350242314 L 178.49407392719814,-30.47239414437695 A 707.1462714332396 707.1462714332396 0 0 0 24.018736134675446,-6.953439040707552 Z M 229.51861343847662,-30.69155372790385 L 229.4868279996054,-29.69205901262228 A 706.1462714332396 706.1462714332396 0 0 1 383.93977220519645,-7.532327189196948 L 383.18823621113967,-4.627986704743197 L 390.84182266793135,-6.262799950473362 L 384.9418201972722,-11.404781168468617 L 384.1902842032154,-8.500440684014865 A 707.1462714332396 707.1462714332396 0 0 0 229.51861343847662,-30.69155372790385"/><text text-anchor="middle" pointer-events="none" font-size="8px" fill="#000000" x="204.00651389317918" y="-27.542345715599367" transform="rotate(180 204.00651389317918 -30.542345715599367)" font-family="sans-serif">CONNECTS</text></g><g class="relationship" transform="translate(131.20323638344223 -25.741607926417146) rotate(464.1915176894134)"><path class="outline" fill="#A5ABB6" stroke="none" d="M 24.018736134675446,-6.953439040707552 L 24.277555179777966,-5.987513214418485 A 435.7672425499558 435.7672425499558 0 0 1 108.81518950580217,-19.919439796434915 L 108.7503676823158,-20.917336650423294 A 436.7672425499558 436.7672425499558 0 0 0 24.018736134675446,-6.953439040707552 Z M 159.77869934493052,-21.24478449733988 L 159.72668930308583,-20.246137935463594 A 435.7672425499558 435.7672425499558 0 0 1 244.4361562545009,-7.400266827033549 L 243.69695149801666,-4.4927633742426405 L 251.34353177042706,-6.1600396373687785 L 245.4217625964799,-11.276938097421429 L 244.68255783999567,-8.36943464463052 A 436.7672425499558 436.7672425499558 0 0 0 159.77869934493052,-21.24478449733988"/><text text-anchor="middle" pointer-events="none" font-size="8px" fill="#000000" x="134.2629557100713" y="-18.32693998246907" transform="rotate(180 134.2629557100713 -21.32693998246907)" font-family="sans-serif">CONNECTS</text></g><g class="relationship" transform="translate(-22.79208603395937 27.18808550251613) rotate(428.02780368270277)"><path class="outline" fill="#A5ABB6" stroke="none" d="M 24.018736134675446,-6.953439040707552 L 24.277555179777966,-5.987513214418485 A 349.1439158858791 349.1439158858791 0 0 1 86.5492470373984,-16.752219039984084 L 86.46878336102576,-17.748976581608247 A 350.1439158858791 350.1439158858791 0 0 0 24.018736134675446,-6.953439040707552 Z M 137.49496954326818,-18.13777374564529 L 137.4297040383893,-17.139905811561334 A 349.1439158858791 349.1439158858791 0 0 1 199.85820076394896,-7.32536074272694 L 199.1259908058718,-4.416087882149468 L 206.76853909830928,-6.10174965064312 L 200.83448070805187,-11.204391223496902 L 200.1022707499747,-8.295118362919432 A 350.1439158858791 350.1439158858791 0 0 0 137.49496954326818,-18.13777374564529"/><text text-anchor="middle" pointer-events="none" font-size="8px" fill="#000000" x="111.97859410377414" y="-15.374154332506578" font-family="sans-serif">CONNECTS</text></g><g class="relationship" transform="translate(63.64276221302673 241.42109589284598) rotate(367.69568377451145)"><path class="outline" fill="#A5ABB6" stroke="none" d="M 6.953439040707552 24.018736134675446 L 17.306200844808384 62.65576918623819 A 17.916697508022974 17.916697508022974 0 1 1 -17.306200844808384 62.65576918623819 L -8.765172356425198 30.780216918698923 L -4.901469051268926 31.815493099109005 L -6.4704761275630185 24.148145657226706 L -11.662949835292403 30.00375978339136 L -7.79924653013613 31.039035963801442 L -16.340275018519314 62.91458823134071 A 16.916697508022974 16.916697508022974 0 1 0 16.340275018519314 62.91458823134071 L 5.987513214418485 24.277555179777966 Z"/><text text-anchor="middle" pointer-events="none" font-size="8px" fill="#000000" x="0" y="94.20964923467838" font-family="sans-serif">CONNECTS</text></g><g class="relationship" transform="translate(-22.79208603395937 27.18808550251613) rotate(341.0316547781782)"><path class="outline" fill="#A5ABB6" stroke="none" d="M 24.018736134675446,6.953439040707552 L 24.277555179777966,5.987513214418485 A 216.04337927259394 216.04337927259394 0 0 0 52.52102633388725,11.569408079218107 L 52.39293784507025,12.561170822535559 A 217.04337927259394 217.04337927259394 0 0 1 24.018736134675446,6.953439040707552 Z M 103.38972554954333,13.105941067461913 L 103.28285276990152,12.111668363938549 A 216.04337927259394 216.04337927259394 0 0 0 131.63912160900156,7.134396958905629 L 130.92474528126985,4.220693737509095 L 138.55682518021544,5.953136064431033 L 132.59162337931053,11.01933458743434 L 131.87724705157882,8.105631366037807 A 217.04337927259394 217.04337927259394 0 0 1 103.38972554954333,13.105941067461913"/><text text-anchor="middle" pointer-events="none" font-size="8px" fill="#000000" x="77.88061611178394" y="16.836658528384845" font-family="sans-serif">CONNECTS</text></g><g class="relationship" transform="translate(399.4111960814354 -2.5494528295968735) rotate(184.9421182508159)"><path class="outline" fill="#A5ABB6" stroke="none" d="M 24.018736134675446,6.953439040707552 L 24.277555179777966,5.987513214418485 A 423.4069849913507 423.4069849913507 0 0 0 105.63476919889119,19.472707617779918 L 105.56809911897585,20.47048269285648 A 424.4069849913507 424.4069849913507 0 0 1 24.018736134675446,6.953439040707552 Z M 156.59636549999183,20.8054811035135 L 156.54280130435194,19.806916695502935 A 423.4069849913507 423.4069849913507 0 0 0 238.07005468146602,7.391051931738276 L 237.33171040527074,4.483329845669929 L 244.97779692832472,6.152868968293996 L 239.05451371639307,11.268014713162739 L 238.3161694401978,8.360292627094392 A 424.4069849913507 424.4069849913507 0 0 1 156.59636549999183,20.8054811035135"/><text text-anchor="middle" pointer-events="none" font-size="8px" fill="#000000" x="131.08047526515534" y="23.905621753138064" transform="rotate(180 131.08047526515534 20.905621753138064)" font-family="sans-serif">CONNECTS</text></g><g class="relationship" transform="translate(-82.1843061589775 184.28324352767777) rotate(315.4550267287989)"><path class="outline" fill="#A5ABB6" stroke="none" d="M 24.018736134675446,6.953439040707552 L 24.277555179777966,5.987513214418485 A 482.03460693595173 482.03460693595173 0 0 0 120.72763912095746,21.580420168527496 L 120.66890961829311,22.578694101632436 A 483.03460693595173 483.03460693595173 0 0 1 24.018736134675446,6.953439040707552 Z M 171.69710299175597,22.880650110429087 L 171.65019163009976,21.8817510543941 A 482.03460693595173 482.03460693595173 0 0 0 268.2780547685647,7.431370269301839 L 267.535945626195,4.52460677345095 L 275.18418778261173,6.184242853080975 L 269.26753362505764,11.307054930436358 L 268.5254244826879,8.40029143458547 A 483.03460693595173 483.03460693595173 0 0 1 171.69710299175597,22.880650110429087"/><text text-anchor="middle" pointer-events="none" font-size="8px" fill="#000000" x="146.18197475389428" y="25.90399614336019" font-family="sans-serif">CONNECTS</text></g><g class="relationship" transform="translate(63.64276221302673 241.42109589284598) rotate(284.1915176894134)"><path class="outline" fill="#A5ABB6" stroke="none" d="M 24.018736134675446,-6.953439040707552 L 24.277555179777966,-5.987513214418485 A 435.7672425499558 435.7672425499558 0 0 1 108.81518950580217,-19.919439796434915 L 108.7503676823158,-20.917336650423294 A 436.7672425499558 436.7672425499558 0 0 0 24.018736134675446,-6.953439040707552 Z M 159.77869934493052,-21.24478449733988 L 159.72668930308583,-20.246137935463594 A 435.7672425499558 435.7672425499558 0 0 1 244.4361562545009,-7.400266827033549 L 243.69695149801666,-4.4927633742426405 L 251.34353177042706,-6.1600396373687785 L 245.4217625964799,-11.276938097421429 L 244.68255783999567,-8.36943464463052 A 436.7672425499558 436.7672425499558 0 0 0 159.77869934493052,-21.24478449733988"/><text text-anchor="middle" pointer-events="none" font-size="8px" fill="#000000" x="134.2629557100713" y="-18.32693998246907" font-family="sans-serif">CONNECTS</text></g><g class="relationship" transform="translate(131.20323638344223 -25.741607926417146) rotate(520.6037687042619)"><path class="outline" fill="#A5ABB6" stroke="none" d="M 6.953439040707552 24.018736134675446 L 17.306200844808384 62.65576918623819 A 17.916697508022974 17.916697508022974 0 1 1 -17.306200844808384 62.65576918623819 L -8.765172356425198 30.780216918698923 L -4.901469051268926 31.815493099109005 L -6.4704761275630185 24.148145657226706 L -11.662949835292403 30.00375978339136 L -7.79924653013613 31.039035963801442 L -16.340275018519314 62.91458823134071 A 16.916697508022974 16.916697508022974 0 1 0 16.340275018519314 62.91458823134071 L 5.987513214418485 24.277555179777966 Z"/><text text-anchor="middle" pointer-events="none" font-size="8px" fill="#000000" x="0" y="94.20964923467838" transform="rotate(180 0 91.20964923467838)" font-family="sans-serif">CONNECTS</text></g><g class="relationship" transform="translate(63.64276221302673 241.42109589284598) rotate(323.99771028869407)"><path class="outline" fill="#A5ABB6" stroke="none" d="M 24.018736134675446,-6.953439040707552 L 24.277555179777966,-5.987513214418485 A 706.1462714332396 706.1462714332396 0 0 1 178.5344440543994,-29.473209350242314 L 178.49407392719814,-30.47239414437695 A 707.1462714332396 707.1462714332396 0 0 0 24.018736134675446,-6.953439040707552 Z M 229.51861343847662,-30.69155372790385 L 229.4868279996054,-29.69205901262228 A 706.1462714332396 706.1462714332396 0 0 1 383.93977220519645,-7.532327189196948 L 383.18823621113967,-4.627986704743197 L 390.84182266793135,-6.262799950473362 L 384.9418201972722,-11.404781168468617 L 384.1902842032154,-8.500440684014865 A 707.1462714332396 707.1462714332396 0 0 0 229.51861343847662,-30.69155372790385"/><text text-anchor="middle" pointer-events="none" font-size="8px" fill="#000000" x="204.00651389317918" y="-27.542345715599367" font-family="sans-serif">CONNECTS</text></g><g class="relationship" transform="translate(-22.79208603395937 27.18808550251613) rotate(355.97107292046144)"><path class="outline" fill="#A5ABB6" stroke="none" d="M 24.018736134675446,-6.953439040707552 L 24.277555179777966,-5.987513214418485 A 722.0323343523519 722.0323343523519 0 0 1 182.63627096052898,-30.026802444819737 L 182.5967754945052,-31.02602219450614 A 723.0323343523519 723.0323343523519 0 0 0 24.018736134675446,-6.953439040707552 Z M 233.62102120722489,-31.240998979926076 L 233.58994687534545,-30.2414819035846 A 722.0323343523519 722.0323343523519 0 0 1 392.14560303427544,-7.537425207859243 L 391.39359102622615,-4.633207939859195 L 399.04744532761714,-6.266766733744224 L 393.14828571167453,-11.409714898525975 L 392.39627370362524,-8.505497630525927 A 723.0323343523519 723.0323343523519 0 0 0 233.62102120722489,-31.240998979926076"/><text text-anchor="middle" pointer-events="none" font-size="8px" fill="#000000" x="208.10910798020842" y="-28.083755544580868" font-family="sans-serif">CONNECTS</text></g><g class="relationship" transform="translate(131.20323638344223 -25.741607926417146) rotate(364.9421182508159)"><path class="outline" fill="#A5ABB6" stroke="none" d="M 24.018736134675446,6.953439040707552 L 24.277555179777966,5.987513214418485 A 423.4069849913507 423.4069849913507 0 0 0 105.63476919889119,19.472707617779918 L 105.56809911897585,20.47048269285648 A 424.4069849913507 424.4069849913507 0 0 1 24.018736134675446,6.953439040707552 Z M 156.59636549999183,20.8054811035135 L 156.54280130435194,19.806916695502935 A 423.4069849913507 423.4069849913507 0 0 0 238.07005468146602,7.391051931738276 L 237.33171040527074,4.483329845669929 L 244.97779692832472,6.152868968293996 L 239.05451371639307,11.268014713162739 L 238.3161694401978,8.360292627094392 A 424.4069849913507 424.4069849913507 0 0 1 156.59636549999183,20.8054811035135"/><text text-anchor="middle" pointer-events="none" font-size="8px" fill="#000000" x="131.08047526515534" y="23.905621753138064" font-family="sans-serif">CONNECTS</text></g><g class="relationship" transform="translate(-82.1843061589775 184.28324352767777) rotate(338.7964724958)"><path class="outline" fill="#A5ABB6" stroke="none" d="M 24.018736134675446,-6.953439040707552 L 24.277555179777966,-5.987513214418485 A 902.6359034626546 902.6359034626546 0 0 1 229.29095987576687,-36.29068791354507 L 229.25926829580234,-37.29018560927 A 903.6359034626546 903.6359034626546 0 0 0 24.018736134675446,-6.953439040707552 Z M 280.2804177153358,-37.4668181702292 L 280.25564722996626,-36.46712500577598 A 902.6359034626546 902.6359034626546 0 0 1 485.47395128864844,-7.584151108246354 L 484.7175764337604,-4.681067044893522 L 492.373876578953,-6.303123790733208 L 486.48245109516574,-11.454929859383464 L 485.72607624027773,-8.551845796030632 A 903.6359034626546 903.6359034626546 0 0 0 280.2804177153358,-37.4668181702292"/><text text-anchor="middle" pointer-events="none" font-size="8px" fill="#000000" x="254.7703270832831" y="-34.23867375588429" font-family="sans-serif">CONNECTS</text></g><g class="relationship" transform="translate(399.4111960814354 -2.5494528295968735) rotate(234.47914337655337)"><path class="outline" fill="#A5ABB6" stroke="none" d="M 6.953439040707552 24.018736134675446 L 17.306200844808384 62.65576918623819 A 17.916697508022974 17.916697508022974 0 1 1 -17.306200844808384 62.65576918623819 L -8.765172356425198 30.780216918698923 L -4.901469051268926 31.815493099109005 L -6.4704761275630185 24.148145657226706 L -11.662949835292403 30.00375978339136 L -7.79924653013613 31.039035963801442 L -16.340275018519314 62.91458823134071 A 16.916697508022974 16.916697508022974 0 1 0 16.340275018519314 62.91458823134071 L 5.987513214418485 24.277555179777966 Z"/><text text-anchor="middle" pointer-events="none" font-size="8px" fill="#000000" x="0" y="94.20964923467838" transform="rotate(180 0 91.20964923467838)" font-family="sans-serif">CONNECTS</text></g><g class="relationship" transform="translate(399.4111960814354 -2.5494528295968735) rotate(535.9710729204614)"><path class="outline" fill="#A5ABB6" stroke="none" d="M 24.018736134675446,-6.953439040707552 L 24.277555179777966,-5.987513214418485 A 722.0323343523519 722.0323343523519 0 0 1 182.63627096052898,-30.026802444819737 L 182.5967754945052,-31.02602219450614 A 723.0323343523519 723.0323343523519 0 0 0 24.018736134675446,-6.953439040707552 Z M 233.62102120722489,-31.240998979926076 L 233.58994687534545,-30.2414819035846 A 722.0323343523519 722.0323343523519 0 0 1 392.14560303427544,-7.537425207859243 L 391.39359102622615,-4.633207939859195 L 399.04744532761714,-6.266766733744224 L 393.14828571167453,-11.409714898525975 L 392.39627370362524,-8.505497630525927 A 723.0323343523519 723.0323343523519 0 0 0 233.62102120722489,-31.240998979926076"/><text text-anchor="middle" pointer-events="none" font-size="8px" fill="#000000" x="208.10910798020842" y="-28.083755544580868" transform="rotate(180 208.10910798020842 -31.083755544580868)" font-family="sans-serif">CONNECTS</text></g><g class="relationship" transform="translate(-82.1843061589775 184.28324352767777) rotate(290.7098631988952)"><path class="outline" fill="#A5ABB6" stroke="none" d="M 24.018736134675446,6.953439040707552 L 24.277555179777966,5.987513214418485 A 226.05858009537914 226.05858009537914 0 0 0 55.06787826077982,11.984533489100073 L 54.94526427840047,12.976987927008963 A 227.05858009537914 227.05858009537914 0 0 1 24.018736134675446,6.953439040707552 Z M 105.9472256160295,13.5058789569174 L 105.84521932061003,12.511095203685159 A 226.05858009537914 226.05858009537914 0 0 0 136.75328589368044,7.153888065439903 L 136.03708925756584,4.2406317467445955 L 143.67025007665526,5.968305300955045 L 137.70821474183325,11.038229823700311 L 136.99201810571864,8.124973505005004 A 227.05858009537914 227.05858009537914 0 0 1 105.9472256160295,13.5058789569174"/><text text-anchor="middle" pointer-events="none" font-size="8px" fill="#000000" x="80.43653178747584" y="17.178091788329624" font-family="sans-serif">CONNECTS</text></g><g class="relationship" transform="translate(131.20323638344223 -25.741607926417146) rotate(521.0316547781782)"><path class="outline" fill="#A5ABB6" stroke="none" d="M 24.018736134675446,6.953439040707552 L 24.277555179777966,5.987513214418485 A 216.04337927259394 216.04337927259394 0 0 0 52.52102633388725,11.569408079218107 L 52.39293784507025,12.561170822535559 A 217.04337927259394 217.04337927259394 0 0 1 24.018736134675446,6.953439040707552 Z M 103.38972554954333,13.105941067461913 L 103.28285276990152,12.111668363938549 A 216.04337927259394 216.04337927259394 0 0 0 131.63912160900156,7.134396958905629 L 130.92474528126985,4.220693737509095 L 138.55682518021544,5.953136064431033 L 132.59162337931053,11.01933458743434 L 131.87724705157882,8.105631366037807 A 217.04337927259394 217.04337927259394 0 0 1 103.38972554954333,13.105941067461913"/><text text-anchor="middle" pointer-events="none" font-size="8px" fill="#000000" x="77.88061611178394" y="16.836658528384845" transform="rotate(180 77.88061611178394 13.836658528384845)" font-family="sans-serif">CONNECTS</text></g><g class="relationship" transform="translate(63.64276221302673 241.42109589284598) rotate(248.02780368270277)"><path class="outline" fill="#A5ABB6" stroke="none" d="M 24.018736134675446,-6.953439040707552 L 24.277555179777966,-5.987513214418485 A 349.1439158858791 349.1439158858791 0 0 1 86.5492470373984,-16.752219039984084 L 86.46878336102576,-17.748976581608247 A 350.1439158858791 350.1439158858791 0 0 0 24.018736134675446,-6.953439040707552 Z M 137.49496954326818,-18.13777374564529 L 137.4297040383893,-17.139905811561334 A 349.1439158858791 349.1439158858791 0 0 1 199.85820076394896,-7.32536074272694 L 199.1259908058718,-4.416087882149468 L 206.76853909830928,-6.10174965064312 L 200.83448070805187,-11.204391223496902 L 200.1022707499747,-8.295118362919432 A 350.1439158858791 350.1439158858791 0 0 0 137.49496954326818,-18.13777374564529"/><text text-anchor="middle" pointer-events="none" font-size="8px" fill="#000000" x="111.97859410377414" y="-15.374154332506578" transform="rotate(180 111.97859410377414 -18.374154332506578)" font-family="sans-serif">CONNECTS</text></g><g class="relationship" transform="translate(-22.79208603395937 27.18808550251613) rotate(181.56252036887463)"><path class="outline" fill="#A5ABB6" stroke="none" d="M 6.953439040707552 24.018736134675446 L 17.306200844808384 62.65576918623819 A 17.916697508022974 17.916697508022974 0 1 1 -17.306200844808384 62.65576918623819 L -8.765172356425198 30.780216918698923 L -4.901469051268926 31.815493099109005 L -6.4704761275630185 24.148145657226706 L -11.662949835292403 30.00375978339136 L -7.79924653013613 31.039035963801442 L -16.340275018519314 62.91458823134071 A 16.916697508022974 16.916697508022974 0 1 0 16.340275018519314 62.91458823134071 L 5.987513214418485 24.277555179777966 Z"/><text text-anchor="middle" pointer-events="none" font-size="8px" fill="#000000" x="0" y="94.20964923467838" transform="rotate(180 0 91.20964923467838)" font-family="sans-serif">CONNECTS</text></g><g class="relationship" transform="translate(-22.79208603395937 27.18808550251613) rotate(470.7098631988952)"><path class="outline" fill="#A5ABB6" stroke="none" d="M 24.018736134675446,6.953439040707552 L 24.277555179777966,5.987513214418485 A 226.05858009537914 226.05858009537914 0 0 0 55.06787826077982,11.984533489100073 L 54.94526427840047,12.976987927008963 A 227.05858009537914 227.05858009537914 0 0 1 24.018736134675446,6.953439040707552 Z M 105.9472256160295,13.5058789569174 L 105.84521932061003,12.511095203685159 A 226.05858009537914 226.05858009537914 0 0 0 136.75328589368044,7.153888065439903 L 136.03708925756584,4.2406317467445955 L 143.67025007665526,5.968305300955045 L 137.70821474183325,11.038229823700311 L 136.99201810571864,8.124973505005004 A 227.05858009537914 227.05858009537914 0 0 1 105.9472256160295,13.5058789569174"/><text text-anchor="middle" pointer-events="none" font-size="8px" fill="#000000" x="80.43653178747584" y="17.178091788329624" transform="rotate(180 80.43653178747584 14.178091788329624)" font-family="sans-serif">CONNECTS</text></g><g class="relationship" transform="translate(399.4111960814354 -2.5494528295968735) rotate(518.7964724958)"><path class="outline" fill="#A5ABB6" stroke="none" d="M 24.018736134675446,-6.953439040707552 L 24.277555179777966,-5.987513214418485 A 902.6359034626546 902.6359034626546 0 0 1 229.29095987576687,-36.29068791354507 L 229.25926829580234,-37.29018560927 A 903.6359034626546 903.6359034626546 0 0 0 24.018736134675446,-6.953439040707552 Z M 280.2804177153358,-37.4668181702292 L 280.25564722996626,-36.46712500577598 A 902.6359034626546 902.6359034626546 0 0 1 485.47395128864844,-7.584151108246354 L 484.7175764337604,-4.681067044893522 L 492.373876578953,-6.303123790733208 L 486.48245109516574,-11.454929859383464 L 485.72607624027773,-8.551845796030632 A 903.6359034626546 903.6359034626546 0 0 0 280.2804177153358,-37.4668181702292"/><text text-anchor="middle" pointer-events="none" font-size="8px" fill="#000000" x="254.7703270832831" y="-34.23867375588429" transform="rotate(180 254.7703270832831 -37.23867375588429)" font-family="sans-serif">CONNECTS</text></g><g class="relationship" transform="translate(63.64276221302673 241.42109589284598) rotate(201.3962020117408)"><path class="outline" fill="#A5ABB6" stroke="none" d="M 24.018736134675446,-6.953439040707552 L 24.277555179777966,-5.987513214418485 A 203.84659400220875 203.84659400220875 0 0 1 49.42414200858764,-11.054562214712007 L 49.28868331175043,-12.045345208838938 A 204.84659400220875 204.84659400220875 0 0 0 24.018736134675446,-6.953439040707552 Z M 100.27775355443161,-12.610756882560963 L 100.16429881196541,-11.617213717211854 A 203.84659400220875 203.84659400220875 0 0 1 125.41706416745468,-7.109037077944008 L 124.70505627126046,-4.194754189177534 L 132.3357255572755,-5.933399134951891 L 126.36640802904698,-10.994747596299309 L 125.65440013285276,-8.080464707532833 A 204.84659400220875 204.84659400220875 0 0 0 100.27775355443161,-12.610756882560963"/><text text-anchor="middle" pointer-events="none" font-size="8px" fill="#000000" x="74.77110046060692" y="-10.42085506604002" transform="rotate(180 74.77110046060692 -13.42085506604002)" font-family="sans-serif">CONNECTS</text></g><g class="relationship" transform="translate(131.20323638344223 -25.741607926417146) rotate(495.4550267287989)"><path class="outline" fill="#A5ABB6" stroke="none" d="M 24.018736134675446,6.953439040707552 L 24.277555179777966,5.987513214418485 A 482.03460693595173 482.03460693595173 0 0 0 120.72763912095746,21.580420168527496 L 120.66890961829311,22.578694101632436 A 483.03460693595173 483.03460693595173 0 0 1 24.018736134675446,6.953439040707552 Z M 171.69710299175597,22.880650110429087 L 171.65019163009976,21.8817510543941 A 482.03460693595173 482.03460693595173 0 0 0 268.2780547685647,7.431370269301839 L 267.535945626195,4.52460677345095 L 275.18418778261173,6.184242853080975 L 269.26753362505764,11.307054930436358 L 268.5254244826879,8.40029143458547 A 483.03460693595173 483.03460693595173 0 0 1 171.69710299175597,22.880650110429087"/><text text-anchor="middle" pointer-events="none" font-size="8px" fill="#000000" x="146.18197475389428" y="25.90399614336019" transform="rotate(180 146.18197475389428 22.90399614336019)" font-family="sans-serif">CONNECTS</text></g><g class="relationship" transform="translate(-82.1843061589775 184.28324352767777) rotate(384.4994125273873)"><path class="outline" fill="#A5ABB6" stroke="none" d="M 6.953439040707552 24.018736134675446 L 17.306200844808384 62.65576918623819 A 17.916697508022974 17.916697508022974 0 1 1 -17.306200844808384 62.65576918623819 L -8.765172356425198 30.780216918698923 L -4.901469051268926 31.815493099109005 L -6.4704761275630185 24.148145657226706 L -11.662949835292403 30.00375978339136 L -7.79924653013613 31.039035963801442 L -16.340275018519314 62.91458823134071 A 16.916697508022974 16.916697508022974 0 1 0 16.340275018519314 62.91458823134071 L 5.987513214418485 24.277555179777966 Z"/><text text-anchor="middle" pointer-events="none" font-size="8px" fill="#000000" x="0" y="94.20964923467838" font-family="sans-serif">CONNECTS</text></g></g><g class="layer nodes"><g class="node" transform="translate(270.2214922239724,-75.85737103004789)"><circle class="outline" cx="0" cy="0" r="25" fill="#DE9BF9" stroke="#BF85D6" stroke-width="2px"/><text text-anchor="middle" pointer-events="none" font-family="sans-serif" dy="1.5625" font-size="25" fill="#FFFFFF"/><text class="caption" text-anchor="middle" pointer-events="none" y="5" font-size="10px" fill="#FFFFFF" font-family="sans-serif"> 134</text></g><g class="node" transform="translate(63.64276221302673,241.42109589284598)"><circle class="outline" cx="0" cy="0" r="25" fill="#FF756E" stroke="#E06760" stroke-width="2px"/><text text-anchor="middle" pointer-events="none" font-family="sans-serif" dy="1.5625" font-size="25" fill="#FFFFFF"/><text text-anchor="middle" pointer-events="none" font-family="sans-serif" dy="1.5625" font-size="25" fill="#FFFFFF"/><text text-anchor="middle" pointer-events="none" font-family="sans-serif" dy="1.5625" font-size="25" fill="#FFFFFF"/><text class="caption" text-anchor="middle" pointer-events="none" y="-5" font-size="10px" fill="#FFFFFF" font-family="sans-serif"> Central</text><text class="caption" text-anchor="middle" pointer-events="none" y="5" font-size="10px" fill="#FFFFFF" font-family="sans-serif"> Sq Post</text><text class="caption" text-anchor="middle" pointer-events="none" y="15" font-size="10px" fill="#FFFFFF" font-family="sans-serif"> Office /</text></g><g class="node" transform="translate(131.20323638344223,-25.741607926417146)"><circle class="outline" cx="0" cy="0" r="25" fill="#FF756E" stroke="#E06760" stroke-width="2px"/><text text-anchor="middle" pointer-events="none" font-family="sans-serif" dy="1.5625" font-size="25" fill="#FFFFFF"/><text text-anchor="middle" pointer-events="none" font-family="sans-serif" dy="1.5625" font-size="25" fill="#FFFFFF"/><text text-anchor="middle" pointer-events="none" font-family="sans-serif" dy="1.5625" font-size="25" fill="#FFFFFF"/><text class="caption" text-anchor="middle" pointer-events="none" y="-5" font-size="10px" fill="#FFFFFF" font-family="sans-serif"> Binney</text><text class="caption" text-anchor="middle" pointer-events="none" y="5" font-size="10px" fill="#FFFFFF" font-family="sans-serif"> St / Sixth</text><text class="caption" text-anchor="middle" pointer-events="none" y="15" font-size="10px" fill="#FFFFFF" font-family="sans-serif"> St</text></g><g class="node" transform="translate(345.92151509443386,211.72832219497113)"><circle class="outline" cx="0" cy="0" r="25" fill="#DE9BF9" stroke="#BF85D6" stroke-width="2px"/><text text-anchor="middle" pointer-events="none" font-family="sans-serif" dy="1.5625" font-size="25" fill="#FFFFFF"/><text class="caption" text-anchor="middle" pointer-events="none" y="5" font-size="10px" fill="#FFFFFF" font-family="sans-serif"> 134</text></g><g class="node" transform="translate(399.4111960814354,-2.5494528295968735)"><circle class="outline" cx="0" cy="0" r="25" fill="#FF756E" stroke="#E06760" stroke-width="2px"/><text text-anchor="middle" pointer-events="none" font-family="sans-serif" dy="1.5625" font-size="25" fill="#FFFFFF"/><text text-anchor="middle" pointer-events="none" font-family="sans-serif" dy="1.5625" font-size="25" fill="#FFFFFF"/><text text-anchor="middle" pointer-events="none" font-family="sans-serif" dy="1.5625" font-size="25" fill="#FFFFFF"/><text class="caption" text-anchor="middle" pointer-events="none" y="-5" font-size="10px" fill="#FFFFFF" font-family="sans-serif"> Ames</text><text class="caption" text-anchor="middle" pointer-events="none" y="5" font-size="10px" fill="#FFFFFF" font-family="sans-serif"> St at</text><text class="caption" text-anchor="middle" pointer-events="none" y="15" font-size="10px" fill="#FFFFFF" font-family="sans-serif"> Main</text></g><g class="node" transform="translate(170.61130122821524,115.30485816253201)"><circle class="outline" cx="0" cy="0" r="25" fill="#DE9BF9" stroke="#BF85D6" stroke-width="2px"/><text text-anchor="middle" pointer-events="none" font-family="sans-serif" dy="1.5625" font-size="25" fill="#FFFFFF"/><text class="caption" text-anchor="middle" pointer-events="none" y="5" font-size="10px" fill="#FFFFFF" font-family="sans-serif"> 134</text></g><g class="node" transform="translate(-22.79208603395937,27.18808550251613)"><circle class="outline" cx="0" cy="0" r="25" fill="#FF756E" stroke="#E06760" stroke-width="2px"/><text text-anchor="middle" pointer-events="none" font-family="sans-serif" dy="1.5625" font-size="25" fill="#FFFFFF"/><text text-anchor="middle" pointer-events="none" font-family="sans-serif" dy="1.5625" font-size="25" fill="#FFFFFF"/><text text-anchor="middle" pointer-events="none" font-family="sans-serif" dy="1.5625" font-size="25" fill="#FFFFFF"/><text text-anchor="middle" pointer-events="none" font-family="sans-serif" dy="1.5625" font-size="25" fill="#FFFFFF"/><text class="caption" text-anchor="middle" pointer-events="none" y="-10" font-size="10px" fill="#FFFFFF" font-family="sans-serif"> MIT</text><text class="caption" text-anchor="middle" pointer-events="none" y="0" font-size="10px" fill="#FFFFFF" font-family="sans-serif"> at Mass</text><text class="caption" text-anchor="middle" pointer-events="none" y="10" font-size="10px" fill="#FFFFFF" font-family="sans-serif"> Ave /</text><text class="caption" text-anchor="middle" pointer-events="none" y="20" font-size="10px" fill="#FFFFFF" font-family="sans-serif"> Am…</text></g><g class="node" transform="translate(-148.41024135265994,-23.803266773478498)"><circle class="outline" cx="0" cy="0" r="25" fill="#DE9BF9" stroke="#BF85D6" stroke-width="2px"/><text text-anchor="middle" pointer-events="none" font-family="sans-serif" dy="1.5625" font-size="25" fill="#FFFFFF"/><text class="caption" text-anchor="middle" pointer-events="none" y="5" font-size="10px" fill="#FFFFFF" font-family="sans-serif"> 134</text></g><g class="node" transform="translate(-82.1843061589775,184.28324352767777)"><circle class="outline" cx="0" cy="0" r="25" fill="#FF756E" stroke="#E06760" stroke-width="2px"/><text text-anchor="middle" pointer-events="none" font-family="sans-serif" dy="1.5625" font-size="25" fill="#FFFFFF"/><text class="caption" text-anchor="middle" pointer-events="none" y="5" font-size="10px" fill="#FFFFFF" font-family="sans-serif"> Lafayette</text></g><g class="node selected" transform="translate(-233.3385930245036,105.25288056947892)"><circle class="outline" cx="0" cy="0" r="25" fill="#DE9BF9" stroke="#BF85D6" stroke-width="2px"/><text text-anchor="middle" pointer-events="none" font-family="sans-serif" dy="1.5625" font-size="25" fill="#FFFFFF"/><text class="caption" text-anchor="middle" pointer-events="none" y="5" font-size="10px" fill="#FFFFFF" font-family="sans-serif"> 134</text></g></g></svg>