<svg xmlns="http://www.w3.org/2000/svg" width="700.33203125" height="426.365966796875" viewBox="-246.17575073242188 -93.6807861328125 700.33203125 426.365966796875"><title>Neo4j Graph Visualization</title><desc>Created using Neo4j (http://www.neo4j.com/)</desc><g class="layer relationships"><g class="relationship" transform="translate(-68.90945347011433 184.23818306652666) rotate(448.1573861121416)"><path class="outline" fill="#A5ABB6" stroke="none" d="M 6.953439040707552 24.018736134675446 L 17.306200844808384 62.65576918623819 A 17.916697508022974 17.916697508022974 0 1 1 -17.306200844808384 62.65576918623819 L -8.765172356425198 30.780216918698923 L -4.901469051268926 31.815493099109005 L -6.4704761275630185 24.148145657226706 L -11.662949835292403 30.00375978339136 L -7.79924653013613 31.039035963801442 L -16.340275018519314 62.91458823134071 A 16.916697508022974 16.916697508022974 0 1 0 16.340275018519314 62.91458823134071 L 5.987513214418485 24.277555179777966 Z"/><text text-anchor="middle" pointer-events="none" font-size="8px" fill="#000000" x="0" y="94.20964923467838" font-family="sans-serif">CONNECTS</text></g><g class="relationship" transform="translate(285.72547218950194 232.0173319080394) rotate(187.6731249804315)"><path class="outline" fill="#A5ABB6" stroke="none" d="M 24.018736134675446,-6.953439040707552 L 24.277555179777966,-5.987513214418485 A 595.336602200456 595.336602200456 0 0 1 149.93595922179213,-25.594087363362405 L 149.88821136495113,-26.592946783985212 A 596.336602200456 596.336602200456 0 0 0 24.018736134675446,-6.953439040707552 Z M 200.91479829445785,-26.84650255970996 L 200.87697939799006,-25.847217950066693 A 595.336602200456 595.336602200456 0 0 1 326.7240270192646,-7.4903973851436305 L 325.9764061587547,-4.585046623371412 L 333.62778227348474,-6.230173837582525 L 327.7208548332778,-11.364198400839923 L 326.9732339727679,-8.458847639067704 A 596.336602200456 596.336602200456 0 0 0 200.91479829445785,-26.84650255970996"/><text text-anchor="middle" pointer-events="none" font-size="8px" fill="#000000" x="175.40127607599644" y="-23.765759990649144" transform="rotate(180 175.40127607599644 -26.765759990649144)" font-family="sans-serif">CONNECTS</text></g><g class="relationship" transform="translate(354.21318218097076 99.24171173253389) rotate(528.6416472438516)"><path class="outline" fill="#A5ABB6" stroke="none" d="M 25 0.5 L 186.78760676852548 0.5 L 186.78760676852548 -0.5 L 25 -0.5 Z M 237.78760676852548 0.5 L 399.57521353705096 0.5 L 399.57521353705096 3.5 L 406.57521353705096 0 L 399.57521353705096 -3.5 L 399.57521353705096 -0.5 L 237.78760676852548 -0.5 Z"/><text text-anchor="middle" pointer-events="none" font-size="8px" fill="#000000" x="212.28760676852548" y="3" transform="rotate(180 212.28760676852548 0)" font-family="sans-serif">CONNECTS</text></g><g class="relationship" transform="translate(354.21318218097076 99.24171173253389) rotate(249.8412593255402)"><path class="outline" fill="#A5ABB6" stroke="none" d="M 25 0.5 L 58.309717873403144 0.5 L 58.309717873403144 -0.5 L 25 -0.5 Z M 109.30971787340314 0.5 L 142.6194357468063 0.5 L 142.6194357468063 3.5 L 149.6194357468063 0 L 142.6194357468063 -3.5 L 142.6194357468063 -0.5 L 109.30971787340314 -0.5 Z"/><text text-anchor="middle" pointer-events="none" font-size="8px" fill="#000000" x="83.80971787340314" y="3" transform="rotate(180 83.80971787340314 0)" font-family="sans-serif">CONNECTS</text></g><g class="relationship" transform="translate(-146.795311312567 30.863170901394888) rotate(347.77107475729576)"><path class="outline" fill="#A5ABB6" stroke="none" d="M 25 0.5 L 196.53292027213647 0.5 L 196.53292027213647 -0.5 L 25 -0.5 Z M 247.53292027213647 0.5 L 419.06584054427293 0.5 L 419.06584054427293 3.5 L 426.06584054427293 0 L 419.06584054427293 -3.5 L 419.06584054427293 -0.5 L 247.53292027213647 -0.5 Z"/><text text-anchor="middle" pointer-events="none" font-size="8px" fill="#000000" x="222.03292027213647" y="3" font-family="sans-serif">CONNECTS</text></g><g class="relationship" transform="translate(285.72547218950194 232.0173319080394) rotate(297.28538072394707)"><path class="outline" fill="#A5ABB6" stroke="none" d="M 24.018736134675446,6.953439040707552 L 24.277555179777966,5.987513214418485 A 189.65518544343732 189.65518544343732 0 0 0 45.8284098713774,10.440307058427948 L 45.683222597751154,11.429711250645141 A 190.65518544343732 190.65518544343732 0 0 1 24.018736134675446,6.953439040707552 Z M 96.66077255316316,12.021141178428934 L 96.5385789536343,11.028634894199882 A 189.65518544343732 189.65518544343732 0 0 0 118.18693958312312,7.077028510553227 L 117.47792110355982,4.162016881822089 L 125.10680313008966,5.908487329694074 L 119.13229755587417,10.963710682194744 L 118.42327907631088,8.048699053463606 A 190.65518544343732 190.65518544343732 0 0 1 96.66077255316316,12.021141178428934"/><text text-anchor="middle" pointer-events="none" font-size="8px" fill="#000000" x="71.15794046814757" y="15.937060689626662" font-family="sans-serif">CONNECTS</text></g><g class="relationship" transform="translate(-146.795311312567 30.863170901394888) rotate(367.77181257579997)"><path class="outline" fill="#A5ABB6" stroke="none" d="M 24.018736134675446,6.953439040707552 L 24.277555179777966,5.987513214418485 A 881.5212729963457 881.5212729963457 0 0 0 223.83476057996089,35.5606400899818 L 223.8023197420704,36.56011374748209 A 882.5212729963457 882.5212729963457 0 0 1 24.018736134675446,6.953439040707552 Z M 274.82380334458554,36.74050929288228 L 274.7984308637905,35.74083122609363 A 881.5212729963457 881.5212729963457 0 0 0 474.55976649266876,7.5795661959947145 L 473.8038197310777,4.676370630132862 L 481.4598806066116,6.299556346592452 L 475.56769550812356,11.450493617143852 L 474.8117487465325,8.547298051281999 A 882.5212729963457 882.5212729963457 0 0 1 274.82380334458554,36.74050929288228"/><text text-anchor="middle" pointer-events="none" font-size="8px" fill="#000000" x="249.31352543261505" y="39.51910916924851" font-family="sans-serif">CONNECTS</text></g><g class="relationship" transform="translate(354.21318218097076 99.24171173253389) rotate(273.5633200247437)"><path class="outline" fill="#A5ABB6" stroke="none" d="M 6.953439040707552 24.018736134675446 L 17.306200844808384 62.65576918623819 A 17.916697508022974 17.916697508022974 0 1 1 -17.306200844808384 62.65576918623819 L -8.765172356425198 30.780216918698923 L -4.901469051268926 31.815493099109005 L -6.4704761275630185 24.148145657226706 L -11.662949835292403 30.00375978339136 L -7.79924653013613 31.039035963801442 L -16.340275018519314 62.91458823134071 A 16.916697508022974 16.916697508022974 0 1 0 16.340275018519314 62.91458823134071 L 5.987513214418485 24.277555179777966 Z"/><text text-anchor="middle" pointer-events="none" font-size="8px" fill="#000000" x="0" y="94.20964923467838" font-family="sans-serif">CONNECTS</text></g><g class="relationship" transform="translate(354.21318218097076 99.24171173253389) rotate(187.77181257579997)"><path class="outline" fill="#A5ABB6" stroke="none" d="M 24.018736134675446,6.953439040707552 L 24.277555179777966,5.987513214418485 A 881.5212729963457 881.5212729963457 0 0 0 223.83476057996089,35.5606400899818 L 223.8023197420704,36.56011374748209 A 882.5212729963457 882.5212729963457 0 0 1 24.018736134675446,6.953439040707552 Z M 274.82380334458554,36.74050929288228 L 274.7984308637905,35.74083122609363 A 881.5212729963457 881.5212729963457 0 0 0 474.55976649266876,7.5795661959947145 L 473.8038197310777,4.676370630132862 L 481.4598806066116,6.299556346592452 L 475.56769550812356,11.450493617143852 L 474.8117487465325,8.547298051281999 A 882.5212729963457 882.5212729963457 0 0 1 274.82380334458554,36.74050929288228"/><text text-anchor="middle" pointer-events="none" font-size="8px" fill="#000000" x="249.31352543261505" y="39.51910916924851" transform="rotate(180 249.31352543261505 36.51910916924851)" font-family="sans-serif">CONNECTS</text></g><g class="relationship" transform="translate(-146.795311312567 30.863170901394888) rotate(447.77144366654784)"><path class="outline" fill="#A5ABB6" stroke="none" d="M 6.953439040707552 24.018736134675446 L 17.306200844808384 62.65576918623819 A 17.916697508022974 17.916697508022974 0 1 1 -17.306200844808384 62.65576918623819 L -8.765172356425198 30.780216918698923 L -4.901469051268926 31.815493099109005 L -6.4704761275630185 24.148145657226706 L -11.662949835292403 30.00375978339136 L -7.79924653013613 31.039035963801442 L -16.340275018519314 62.91458823134071 A 16.916697508022974 16.916697508022974 0 1 0 16.340275018519314 62.91458823134071 L 5.987513214418485 24.277555179777966 Z"/><text text-anchor="middle" pointer-events="none" font-size="8px" fill="#000000" x="0" y="94.20964923467838" font-family="sans-serif">CONNECTS</text></g><g class="relationship" transform="translate(285.72547218950194 232.0173319080394) rotate(332.47925285218935)"><path class="outline" fill="#A5ABB6" stroke="none" d="M 6.953439040707552 24.018736134675446 L 17.306200844808384 62.65576918623819 A 17.916697508022974 17.916697508022974 0 1 1 -17.306200844808384 62.65576918623819 L -8.765172356425198 30.780216918698923 L -4.901469051268926 31.815493099109005 L -6.4704761275630185 24.148145657226706 L -11.662949835292403 30.00375978339136 L -7.79924653013613 31.039035963801442 L -16.340275018519314 62.91458823134071 A 16.916697508022974 16.916697508022974 0 1 0 16.340275018519314 62.91458823134071 L 5.987513214418485 24.277555179777966 Z"/><text text-anchor="middle" pointer-events="none" font-size="8px" fill="#000000" x="0" y="94.20964923467838" font-family="sans-serif">CONNECTS</text></g><g class="relationship" transform="translate(-68.90945347011433 184.23818306652666) rotate(367.6731249804315)"><path class="outline" fill="#A5ABB6" stroke="none" d="M 24.018736134675446,-6.953439040707552 L 24.277555179777966,-5.987513214418485 A 595.336602200456 595.336602200456 0 0 1 149.93595922179213,-25.594087363362405 L 149.88821136495113,-26.592946783985212 A 596.336602200456 596.336602200456 0 0 0 24.018736134675446,-6.953439040707552 Z M 200.91479829445785,-26.84650255970996 L 200.87697939799006,-25.847217950066693 A 595.336602200456 595.336602200456 0 0 1 326.7240270192646,-7.4903973851436305 L 325.9764061587547,-4.585046623371412 L 333.62778227348474,-6.230173837582525 L 327.7208548332778,-11.364198400839923 L 326.9732339727679,-8.458847639067704 A 596.336602200456 596.336602200456 0 0 0 200.91479829445785,-26.84650255970996"/><text text-anchor="middle" pointer-events="none" font-size="8px" fill="#000000" x="175.40127607599644" y="-23.765759990649144" font-family="sans-serif">CONNECTS</text></g><g class="relationship" transform="translate(354.21318218097076 99.24171173253389) rotate(477.28538072394707)"><path class="outline" fill="#A5ABB6" stroke="none" d="M 24.018736134675446,6.953439040707552 L 24.277555179777966,5.987513214418485 A 189.65518544343732 189.65518544343732 0 0 0 45.8284098713774,10.440307058427948 L 45.683222597751154,11.429711250645141 A 190.65518544343732 190.65518544343732 0 0 1 24.018736134675446,6.953439040707552 Z M 96.66077255316316,12.021141178428934 L 96.5385789536343,11.028634894199882 A 189.65518544343732 189.65518544343732 0 0 0 118.18693958312312,7.077028510553227 L 117.47792110355982,4.162016881822089 L 125.10680313008966,5.908487329694074 L 119.13229755587417,10.963710682194744 L 118.42327907631088,8.048699053463606 A 190.65518544343732 190.65518544343732 0 0 1 96.66077255316316,12.021141178428934"/><text text-anchor="middle" pointer-events="none" font-size="8px" fill="#000000" x="71.15794046814757" y="15.937060689626662" transform="rotate(180 71.15794046814757 12.937060689626662)" font-family="sans-serif">CONNECTS</text></g></g><g class="layer nodes"><g class="node" transform="translate(-68.90945347011433,184.23818306652666)"><circle class="outline" cx="0" cy="0" r="25" fill="#FF756E" stroke="#E06760" stroke-width="2px"/><text text-anchor="middle" pointer-events="none" font-family="sans-serif" dy="1.5625" font-size="25" fill="#FFFFFF"/><text class="caption" text-anchor="middle" pointer-events="none" y="5" font-size="10px" fill="#FFFFFF" font-family="sans-serif"> Cambri…</text></g><g class="node" transform="translate(294.03543230198545,-64.68078751645663)"><circle class="outline" cx="0" cy="0" r="25" fill="#FF756E" stroke="#E06760" stroke-width="2px"/><text text-anchor="middle" pointer-events="none" font-family="sans-serif" dy="1.5625" font-size="25" fill="#FFFFFF"/><text text-anchor="middle" pointer-events="none" font-family="sans-serif" dy="1.5625" font-size="25" fill="#FFFFFF"/><text text-anchor="middle" pointer-events="none" font-family="sans-serif" dy="1.5625" font-size="25" fill="#FFFFFF"/><text class="caption" text-anchor="middle" pointer-events="none" y="-5" font-size="10px" fill="#FFFFFF" font-family="sans-serif"> Harvard</text><text class="caption" text-anchor="middle" pointer-events="none" y="5" font-size="10px" fill="#FFFFFF" font-family="sans-serif"> University</text><text class="caption" text-anchor="middle" pointer-events="none" y="15" font-size="10px" fill="#FFFFFF" font-family="sans-serif"> Radcl…</text></g><g class="node" transform="translate(354.21318218097076,99.24171173253389)"><circle class="outline" cx="0" cy="0" r="25" fill="#FF756E" stroke="#E06760" stroke-width="2px"/><text text-anchor="middle" pointer-events="none" font-family="sans-serif" dy="1.5625" font-size="25" fill="#FFFFFF"/><text text-anchor="middle" pointer-events="none" font-family="sans-serif" dy="1.5625" font-size="25" fill="#FFFFFF"/><text class="caption" text-anchor="middle" pointer-events="none" y="0" font-size="10px" fill="#FFFFFF" font-family="sans-serif"> Lower</text><text class="caption" text-anchor="middle" pointer-events="none" y="10" font-size="10px" fill="#FFFFFF" font-family="sans-serif"> Cambri…</text></g><g class="node" transform="translate(-146.795311312567,30.863170901394888)"><circle class="outline" cx="0" cy="0" r="25" fill="#FF756E" stroke="#E06760" stroke-width="2px"/><text text-anchor="middle" pointer-events="none" font-family="sans-serif" dy="1.5625" font-size="25" fill="#FFFFFF"/><text text-anchor="middle" pointer-events="none" font-family="sans-serif" dy="1.5625" font-size="25" fill="#FFFFFF"/><text text-anchor="middle" pointer-events="none" font-family="sans-serif" dy="1.5625" font-size="25" fill="#FFFFFF"/><text class="caption" text-anchor="middle" pointer-events="none" y="-5" font-size="10px" fill="#FFFFFF" font-family="sans-serif"> Harvard</text><text class="caption" text-anchor="middle" pointer-events="none" y="5" font-size="10px" fill="#FFFFFF" font-family="sans-serif"> University</text><text class="caption" text-anchor="middle" pointer-events="none" y="15" font-size="10px" fill="#FFFFFF" font-family="sans-serif"> River</text></g><g class="node" transform="translate(285.72547218950194,232.0173319080394)"><circle class="outline" cx="0" cy="0" r="25" fill="#FF756E" stroke="#E06760" stroke-width="2px"/><text text-anchor="middle" pointer-events="none" font-family="sans-serif" dy="1.5625" font-size="25" fill="#FFFFFF"/><text text-anchor="middle" pointer-events="none" font-family="sans-serif" dy="1.5625" font-size="25" fill="#FFFFFF"/><text class="caption" text-anchor="middle" pointer-events="none" y="0" font-size="10px" fill="#FFFFFF" font-family="sans-serif"> Kendall</text><text class="caption" text-anchor="middle" pointer-events="none" y="10" font-size="10px" fill="#FFFFFF" font-family="sans-serif"> Street</text></g></g></svg>